<svg width="291" height="162" viewBox="0 0 291 162" fill="none" xmlns="http://www.w3.org/2000/svg">
<mask id="mask0_4001_7" style="mask-type:luminance" maskUnits="userSpaceOnUse" x="36" y="38" width="77" height="121">
<path d="M36.8297 38.819H112.885V158.087H36.8297V38.819Z" fill="white"/>
</mask>
<g mask="url(#mask0_4001_7)">
<mask id="mask1_4001_7" style="mask-type:luminance" maskUnits="userSpaceOnUse" x="36" y="39" width="77" height="120">
<path d="M50.5027 39.2836H36.9762V64.2841H49.3227C69.1849 64.2841 82.1412 76.0273 82.1412 98.4065C82.1412 120.952 69.6917 133.025 49.3227 133.025H36.9762V158.025H50.5027C88.362 158.025 112.6 135.437 112.6 98.4143C112.6 61.3918 88.362 39.2836 50.5027 39.2836Z" fill="white"/>
</mask>
<g mask="url(#mask1_4001_7)">
<mask id="mask2_4001_7" style="mask-type:luminance" maskUnits="userSpaceOnUse" x="36" y="38" width="78" height="121">
<path d="M113.241 38.6022H36.2001V158.536H113.241V38.6022Z" fill="white"/>
</mask>
<g mask="url(#mask2_4001_7)">
<mask id="mask3_4001_7" style="mask-type:luminance" maskUnits="userSpaceOnUse" x="36" y="39" width="77" height="120">
<path d="M36.9525 39.2333H112.79V158.071H36.9525V39.2333Z" fill="white"/>
</mask>
<g mask="url(#mask3_4001_7)">
<mask id="mask4_4001_7" style="mask-type:luminance" maskUnits="userSpaceOnUse" x="36" y="39" width="77" height="120">
<path d="M50.5027 39.2836H36.9761V64.284H49.3227C69.1848 64.284 82.1412 76.0273 82.1412 98.4065C82.1412 120.952 69.6917 133.025 49.3227 133.025H36.9761V158.025H50.5027C88.3619 158.025 112.6 135.437 112.6 98.4142C112.6 61.3918 88.3619 39.2836 50.5027 39.2836Z" fill="white"/>
</mask>
<g mask="url(#mask4_4001_7)">
<path d="M791.572 -679.138H-460.172V1051.96H791.572V-679.138Z" fill="#2F3540"/>
</g>
</g>
</g>
</g>
</g>
<mask id="mask5_4001_7" style="mask-type:luminance" maskUnits="userSpaceOnUse" x="4" y="39" width="31" height="120">
<path d="M4.78339 39.2875H34.9172V158.087H4.78339V39.2875Z" fill="white"/>
</mask>
<g mask="url(#mask5_4001_7)">
<mask id="mask6_4001_7" style="mask-type:luminance" maskUnits="userSpaceOnUse" x="5" y="39" width="30" height="120">
<path d="M34.8538 68.2527V39.454C17.8149 39.454 5.03284 52.3472 5.03284 68.245V158.013H34.8538V68.2527Z" fill="white"/>
</mask>
<g mask="url(#mask6_4001_7)">
<mask id="mask7_4001_7" style="mask-type:luminance" maskUnits="userSpaceOnUse" x="4" y="38" width="32" height="121">
<path d="M35.1864 38.6022H4.77545V158.536H35.1864V38.6022Z" fill="white"/>
</mask>
<g mask="url(#mask7_4001_7)">
<mask id="mask8_4001_7" style="mask-type:luminance" maskUnits="userSpaceOnUse" x="4" y="39" width="31" height="120">
<path d="M4.86633 39.2875H34.917V158.071H4.86633V39.2875Z" fill="white"/>
</mask>
<g mask="url(#mask8_4001_7)">
<mask id="mask9_4001_7" style="mask-type:luminance" maskUnits="userSpaceOnUse" x="5" y="39" width="30" height="120">
<path d="M34.8538 68.2527V39.454C17.8149 39.454 5.03284 52.3472 5.03284 68.245V158.013H34.8538V68.2527Z" fill="white"/>
</mask>
<g mask="url(#mask9_4001_7)">
<path d="M791.572 -679.138H-460.172V1051.96H791.572V-679.138Z" fill="#3270A2"/>
</g>
</g>
</g>
</g>
</g>
<mask id="mask10_4001_7" style="mask-type:luminance" maskUnits="userSpaceOnUse" x="0" y="0" width="36" height="36">
<path d="M0 0H35.8754V35.0788H0V0Z" fill="white"/>
</mask>
<g mask="url(#mask10_4001_7)">
<mask id="mask11_4001_7" style="mask-type:luminance" maskUnits="userSpaceOnUse" x="0" y="0" width="36" height="35">
<path d="M35.7685 17.6285C35.7685 27.2113 27.8292 34.9743 18.0288 34.9743C8.23235 34.9743 0.29303 27.2113 0.29303 17.6285C0.29303 8.04956 8.23235 0.28653 18.0288 0.28653C27.8292 0.28653 35.7685 8.04956 35.7685 17.6285Z" fill="white"/>
</mask>
<g mask="url(#mask11_4001_7)">
<mask id="mask12_4001_7" style="mask-type:luminance" maskUnits="userSpaceOnUse" x="-1" y="-1" width="38" height="37">
<path d="M36.2001 -0.0541992H-0.29303V35.6286H36.2001V-0.0541992Z" fill="white"/>
</mask>
<g mask="url(#mask12_4001_7)">
<mask id="mask13_4001_7" style="mask-type:luminance" maskUnits="userSpaceOnUse" x="0" y="0" width="36" height="36">
<path d="M0.249451 0.255554H35.8754V35.0788H0.249451V0.255554Z" fill="white"/>
</mask>
<g mask="url(#mask13_4001_7)">
<mask id="mask14_4001_7" style="mask-type:luminance" maskUnits="userSpaceOnUse" x="0" y="0" width="36" height="35">
<path d="M35.7684 17.6285C35.7684 27.2113 27.8291 34.9743 18.0287 34.9743C8.23223 34.9743 0.292908 27.2113 0.292908 17.6285C0.292908 8.04956 8.23223 0.28653 18.0287 0.28653C27.8291 0.28653 35.7684 8.04956 35.7684 17.6285Z" fill="white"/>
</mask>
<g mask="url(#mask14_4001_7)">
<path d="M791.572 -679.138H-460.172V1051.96H791.572V-679.138Z" fill="#3270A2"/>
</g>
</g>
</g>
</g>
</g>
<mask id="mask15_4001_7" style="mask-type:luminance" maskUnits="userSpaceOnUse" x="128" y="63" width="67" height="96">
<path d="M128.447 63.893H194.951V158.284H128.447V63.893Z" fill="white"/>
</mask>
<g mask="url(#mask15_4001_7)">
<mask id="mask16_4001_7" style="mask-type:luminance" maskUnits="userSpaceOnUse" x="128" y="64" width="67" height="95">
<path d="M161.958 112.198C173.635 112.198 180.783 104.66 180.783 93.2415C180.783 81.8273 173.635 74.6993 162.101 74.6993H141.367V112.198H161.958ZM128.581 64.2841H164.16C181.88 64.2841 194.65 76.2867 194.65 94.2869C194.65 112.287 181.88 124.685 164.16 124.685H141.367V158.013H128.581V64.2841Z" fill="white"/>
</mask>
<g mask="url(#mask16_4001_7)">
<mask id="mask17_4001_7" style="mask-type:luminance" maskUnits="userSpaceOnUse" x="128" y="63" width="68" height="96">
<path d="M195.351 63.3819H128.447V158.536H195.351V63.3819Z" fill="white"/>
</mask>
<g mask="url(#mask17_4001_7)">
<mask id="mask18_4001_7" style="mask-type:luminance" maskUnits="userSpaceOnUse" x="128" y="64" width="67" height="95">
<path d="M128.447 64.1911H194.705V158.071H128.447V64.1911Z" fill="white"/>
</mask>
<g mask="url(#mask18_4001_7)">
<mask id="mask19_4001_7" style="mask-type:luminance" maskUnits="userSpaceOnUse" x="128" y="64" width="67" height="95">
<path d="M161.958 112.198C173.635 112.198 180.783 104.66 180.783 93.2415C180.783 81.8273 173.635 74.6993 162.101 74.6993H141.367V112.198H161.958ZM128.581 64.2841H164.16C181.88 64.2841 194.65 76.2867 194.65 94.2869C194.65 112.287 181.88 124.685 164.16 124.685H141.367V158.013H128.581V64.2841Z" fill="white"/>
</mask>
<g mask="url(#mask19_4001_7)">
<path d="M791.572 -679.138H-460.172V1051.96H791.572V-679.138Z" fill="#2F3540"/>
</g>
</g>
</g>
</g>
</g>
<mask id="mask20_4001_7" style="mask-type:luminance" maskUnits="userSpaceOnUse" x="197" y="89" width="60" height="73">
<path d="M197.077 89.2574H256.616V161.196H197.077V89.2574Z" fill="white"/>
</mask>
<g mask="url(#mask20_4001_7)">
<mask id="mask21_4001_7" style="mask-type:luminance" maskUnits="userSpaceOnUse" x="197" y="89" width="60" height="72">
<path d="M223.283 150.103C234.544 150.103 241.482 138.546 241.482 128.479V126.772H238.738C228.708 126.772 210.41 127.217 210.41 139.44C210.41 144.95 214.635 150.103 223.283 150.103ZM239.011 116.356H241.482V115.315C241.482 104.164 235.305 100.401 226.514 100.401C215.803 100.401 207.281 106.983 207.281 106.983L201.861 97.454C201.861 97.454 212.441 89.3929 228.371 89.3929C245.956 89.3929 256.394 98.7937 256.394 115.989V158.013H243.612V152.523C243.612 149.437 243.276 147.61 243.276 147.61H243.002C243.002 147.61 237.368 160.813 220.745 160.813C208.794 160.813 197.121 153.499 197.121 139.936C197.121 117.506 227.338 116.364 239.023 116.364" fill="white"/>
</mask>
<g mask="url(#mask21_4001_7)">
<mask id="mask22_4001_7" style="mask-type:luminance" maskUnits="userSpaceOnUse" x="196" y="89" width="62" height="73">
<path d="M257.186 89.1528H196.365V161.51H257.186V89.1528Z" fill="white"/>
</mask>
<g mask="url(#mask22_4001_7)">
<mask id="mask23_4001_7" style="mask-type:luminance" maskUnits="userSpaceOnUse" x="197" y="89" width="60" height="72">
<path d="M197.077 89.3813H256.446V160.921H197.077V89.3813Z" fill="white"/>
</mask>
<g mask="url(#mask23_4001_7)">
<mask id="mask24_4001_7" style="mask-type:luminance" maskUnits="userSpaceOnUse" x="197" y="89" width="60" height="72">
<path d="M223.283 150.103C234.544 150.103 241.482 138.546 241.482 128.479V126.772H238.738C228.708 126.772 210.41 127.217 210.41 139.44C210.41 144.95 214.635 150.103 223.283 150.103ZM239.011 116.356H241.482V115.315C241.482 104.164 235.305 100.401 226.514 100.401C215.803 100.401 207.281 106.983 207.281 106.983L201.861 97.454C201.861 97.454 212.441 89.3929 228.371 89.3929C245.956 89.3929 256.394 98.7937 256.394 115.989V158.013H243.612V152.523C243.612 149.437 243.276 147.61 243.276 147.61H243.002C243.002 147.61 237.368 160.813 220.745 160.813C208.794 160.813 197.121 153.499 197.121 139.936C197.121 117.506 227.338 116.364 239.023 116.364" fill="white"/>
</mask>
<g mask="url(#mask24_4001_7)">
<path d="M791.572 -679.138H-460.172V1051.96H791.572V-679.138Z" fill="#2F3540"/>
</g>
</g>
</g>
</g>
</g>
<mask id="mask25_4001_7" style="mask-type:luminance" maskUnits="userSpaceOnUse" x="267" y="64" width="24" height="96">
<path d="M267.05 64.2841H290.571V159.512H267.05V64.2841Z" fill="white"/>
</mask>
<g mask="url(#mask25_4001_7)">
<mask id="mask26_4001_7" style="mask-type:luminance" maskUnits="userSpaceOnUse" x="267" y="64" width="24" height="96">
<path d="M267.05 64.2841H281.963V138.147C281.963 146.34 284.643 147.819 288.765 147.819C290.005 147.819 290.484 147.687 290.484 147.687V159.237C290.484 159.237 288.239 159.504 285.914 159.504C278.351 159.504 267.05 157.487 267.05 140.431V64.2841Z" fill="white"/>
</mask>
<g mask="url(#mask26_4001_7)">
<mask id="mask27_4001_7" style="mask-type:luminance" maskUnits="userSpaceOnUse" x="266" y="63" width="25" height="97">
<path d="M290.638 63.3819H266.31V159.527H290.638V63.3819Z" fill="white"/>
</mask>
<g mask="url(#mask27_4001_7)">
<mask id="mask28_4001_7" style="mask-type:luminance" maskUnits="userSpaceOnUse" x="267" y="64" width="24" height="96">
<path d="M267.05 64.2841H290.571V159.512H267.05V64.2841Z" fill="white"/>
</mask>
<g mask="url(#mask28_4001_7)">
<mask id="mask29_4001_7" style="mask-type:luminance" maskUnits="userSpaceOnUse" x="267" y="64" width="24" height="96">
<path d="M267.05 64.2841H281.963V138.147C281.963 146.34 284.643 147.819 288.765 147.819C290.005 147.819 290.484 147.687 290.484 147.687V159.237C290.484 159.237 288.239 159.504 285.914 159.504C278.351 159.504 267.05 157.487 267.05 140.431V64.2841Z" fill="white"/>
</mask>
<g mask="url(#mask29_4001_7)">
<path d="M267.05 64.2841H290.48V159.512H267.05V64.2841Z" fill="#2F3540"/>
</g>
</g>
</g>
</g>
</g>
</svg>
