<svg xmlns="http://www.w3.org/2000/svg" xmlns:xlink="http://www.w3.org/1999/xlink" width="794" zoomAndPan="magnify" viewBox="0 0 595.5 842.249979" height="1123" preserveAspectRatio="xMidYMid meet" version="1.0"><defs><g/><clipPath id="633c19f296"><path d="M 0.84375 0.277344 L 437.496094 0.277344 L 437.496094 226.875 L 0.84375 226.875 Z M 0.84375 0.277344 " clip-rule="nonzero"/></clipPath><clipPath id="93f2a4800f"><path d="M 114.621094 44.21875 L 189.648438 44.21875 L 189.648438 164.546875 L 114.621094 164.546875 Z M 114.621094 44.21875 " clip-rule="nonzero"/></clipPath><clipPath id="3b5d88ca47"><path d="M 128.109375 44.6875 L 114.765625 44.6875 L 114.765625 69.910156 L 126.945312 69.910156 C 146.539062 69.910156 159.320312 81.757812 159.320312 104.335938 C 159.320312 127.082031 147.039062 139.261719 126.945312 139.261719 L 114.765625 139.261719 L 114.765625 164.484375 L 128.109375 164.484375 C 165.457031 164.484375 189.367188 141.695312 189.367188 104.34375 C 189.367188 66.992188 165.457031 44.6875 128.109375 44.6875 " clip-rule="nonzero"/></clipPath><clipPath id="e96f29edb4"><path d="M 0.742188 0.636719 L 75.554688 0.636719 L 75.554688 120.53125 L 0.742188 120.53125 Z M 0.742188 0.636719 " clip-rule="nonzero"/></clipPath><clipPath id="d26016d2f7"><path d="M 14.109375 0.6875 L 0.765625 0.6875 L 0.765625 25.910156 L 12.945312 25.910156 C 32.539062 25.910156 45.320312 37.757812 45.320312 60.335938 C 45.320312 83.082031 33.039062 95.261719 12.945312 95.261719 L 0.765625 95.261719 L 0.765625 120.484375 L 14.109375 120.484375 C 51.457031 120.484375 75.367188 97.695312 75.367188 60.34375 C 75.367188 22.992188 51.457031 0.6875 14.109375 0.6875 " clip-rule="nonzero"/></clipPath><clipPath id="aeeac86891"><rect x="0" width="76" y="0" height="121"/></clipPath><clipPath id="ffa90444c4"><path d="M 83.007812 44.691406 L 112.734375 44.691406 L 112.734375 164.546875 L 83.007812 164.546875 Z M 83.007812 44.691406 " clip-rule="nonzero"/></clipPath><clipPath id="832b8501b1"><path d="M 112.671875 73.914062 L 112.671875 44.859375 C 95.863281 44.859375 83.253906 57.867188 83.253906 73.90625 L 83.253906 164.472656 L 112.671875 164.472656 Z M 112.671875 73.914062 " clip-rule="nonzero"/></clipPath><clipPath id="2b6700a848"><path d="M 0.0898438 0.691406 L 29.734375 0.691406 L 29.734375 120.53125 L 0.0898438 120.53125 Z M 0.0898438 0.691406 " clip-rule="nonzero"/></clipPath><clipPath id="6a67aa1922"><path d="M 29.671875 29.914062 L 29.671875 0.859375 C 12.863281 0.859375 0.253906 13.867188 0.253906 29.90625 L 0.253906 120.472656 L 29.671875 120.472656 Z M 29.671875 29.914062 " clip-rule="nonzero"/></clipPath><clipPath id="b8b335e2c0"><rect x="0" width="30" y="0" height="121"/></clipPath><clipPath id="1f85d4f4b8"><path d="M 78.289062 5.054688 L 113.679688 5.054688 L 113.679688 40.445312 L 78.289062 40.445312 Z M 78.289062 5.054688 " clip-rule="nonzero"/></clipPath><clipPath id="c5792e4e17"><path d="M 113.574219 22.839844 C 113.574219 32.507812 105.742188 40.339844 96.074219 40.339844 C 86.410156 40.339844 78.578125 32.507812 78.578125 22.839844 C 78.578125 13.175781 86.410156 5.34375 96.074219 5.34375 C 105.742188 5.34375 113.574219 13.175781 113.574219 22.839844 " clip-rule="nonzero"/></clipPath><clipPath id="1e954f14d7"><path d="M 0.535156 0.3125 L 35.679688 0.3125 L 35.679688 35.445312 L 0.535156 35.445312 Z M 0.535156 0.3125 " clip-rule="nonzero"/></clipPath><clipPath id="e5143722ab"><path d="M 35.574219 17.839844 C 35.574219 27.507812 27.742188 35.339844 18.074219 35.339844 C 8.410156 35.339844 0.578125 27.507812 0.578125 17.839844 C 0.578125 8.175781 8.410156 0.34375 18.074219 0.34375 C 27.742188 0.34375 35.574219 8.175781 35.574219 17.839844 " clip-rule="nonzero"/></clipPath><clipPath id="26a305c8a6"><rect x="0" width="36" y="0" height="36"/></clipPath><clipPath id="aae912b943"><path d="M 205 69.515625 L 270.605469 69.515625 L 270.605469 164.746094 L 205 164.746094 Z M 205 69.515625 " clip-rule="nonzero"/></clipPath><clipPath id="b881cdf8c9"><path d="M 238.058594 118.25 C 249.578125 118.25 256.628906 110.644531 256.628906 99.125 C 256.628906 87.609375 249.578125 80.417969 238.199219 80.417969 L 217.746094 80.417969 L 217.746094 118.25 Z M 205.132812 69.910156 L 240.230469 69.910156 C 257.710938 69.910156 270.308594 82.019531 270.308594 100.179688 C 270.308594 118.339844 257.710938 130.847656 240.230469 130.847656 L 217.746094 130.847656 L 217.746094 164.472656 L 205.132812 164.472656 Z M 205.132812 69.910156 " clip-rule="nonzero"/></clipPath><clipPath id="8de0e4af4b"><path d="M 0 0.816406 L 65.363281 0.816406 L 65.363281 95.53125 L 0 95.53125 Z M 0 0.816406 " clip-rule="nonzero"/></clipPath><clipPath id="9e8380a45a"><path d="M 33.058594 49.25 C 44.578125 49.25 51.628906 41.644531 51.628906 30.125 C 51.628906 18.609375 44.578125 11.417969 33.199219 11.417969 L 12.746094 11.417969 L 12.746094 49.25 Z M 0.132812 0.910156 L 35.230469 0.910156 C 52.710938 0.910156 65.308594 13.019531 65.308594 31.179688 C 65.308594 49.339844 52.710938 61.847656 35.230469 61.847656 L 12.746094 61.847656 L 12.746094 95.472656 L 0.132812 95.472656 Z M 0.132812 0.910156 " clip-rule="nonzero"/></clipPath><clipPath id="ae542292b5"><rect x="0" width="66" y="0" height="96"/></clipPath><clipPath id="ca726c2cc9"><path d="M 272.703125 95.105469 L 331.4375 95.105469 L 331.4375 167.683594 L 272.703125 167.683594 Z M 272.703125 95.105469 " clip-rule="nonzero"/></clipPath><clipPath id="9da03aaf32"><path d="M 298.554688 156.492188 C 309.664062 156.492188 316.507812 144.832031 316.507812 134.675781 L 316.507812 132.953125 L 313.800781 132.953125 C 303.90625 132.953125 285.855469 133.402344 285.855469 145.734375 C 285.855469 151.292969 290.023438 156.492188 298.554688 156.492188 M 314.070312 122.445312 L 316.507812 122.445312 L 316.507812 121.394531 C 316.507812 110.144531 310.414062 106.347656 301.742188 106.347656 C 291.175781 106.347656 282.769531 112.988281 282.769531 112.988281 L 277.421875 103.375 C 277.421875 103.375 287.859375 95.242188 303.574219 95.242188 C 320.921875 95.242188 331.21875 104.726562 331.21875 122.074219 L 331.21875 164.472656 L 318.609375 164.472656 L 318.609375 158.933594 C 318.609375 155.820312 318.277344 153.976562 318.277344 153.976562 L 318.007812 153.976562 C 318.007812 153.976562 312.449219 167.296875 296.050781 167.296875 C 284.261719 167.296875 272.746094 159.917969 272.746094 146.234375 C 272.746094 123.605469 302.554688 122.453125 314.082031 122.453125 " clip-rule="nonzero"/></clipPath><clipPath id="cdb6b3f946"><path d="M 0.703125 0.230469 L 59.269531 0.230469 L 59.269531 72.40625 L 0.703125 72.40625 Z M 0.703125 0.230469 " clip-rule="nonzero"/></clipPath><clipPath id="022cdd862a"><path d="M 26.554688 61.492188 C 37.664062 61.492188 44.507812 49.832031 44.507812 39.675781 L 44.507812 37.953125 L 41.800781 37.953125 C 31.90625 37.953125 13.855469 38.402344 13.855469 50.734375 C 13.855469 56.292969 18.023438 61.492188 26.554688 61.492188 M 42.070312 27.445312 L 44.507812 27.445312 L 44.507812 26.394531 C 44.507812 15.144531 38.414062 11.347656 29.742188 11.347656 C 19.175781 11.347656 10.769531 17.988281 10.769531 17.988281 L 5.421875 8.375 C 5.421875 8.375 15.859375 0.242188 31.574219 0.242188 C 48.921875 0.242188 59.21875 9.726562 59.21875 27.074219 L 59.21875 69.472656 L 46.609375 69.472656 L 46.609375 63.933594 C 46.609375 60.820312 46.277344 58.976562 46.277344 58.976562 L 46.007812 58.976562 C 46.007812 58.976562 40.449219 72.296875 24.050781 72.296875 C 12.261719 72.296875 0.746094 64.917969 0.746094 51.234375 C 0.746094 28.605469 30.554688 27.453125 42.082031 27.453125 " clip-rule="nonzero"/></clipPath><clipPath id="e740fd8f67"><rect x="0" width="60" y="0" height="73"/></clipPath><clipPath id="9e236a1e31"><path d="M 341.730469 69.910156 L 364.933594 69.910156 L 364.933594 165.984375 L 341.730469 165.984375 Z M 341.730469 69.910156 " clip-rule="nonzero"/></clipPath><clipPath id="30d8271fe0"><path d="M 341.730469 69.910156 L 356.441406 69.910156 L 356.441406 144.429688 C 356.441406 152.695312 359.085938 154.1875 363.152344 154.1875 C 364.375 154.1875 364.847656 154.054688 364.847656 154.054688 L 364.847656 165.707031 C 364.847656 165.707031 362.632812 165.976562 360.339844 165.976562 C 352.878906 165.976562 341.730469 163.941406 341.730469 146.734375 Z M 341.730469 69.910156 " clip-rule="nonzero"/></clipPath><clipPath id="1b8cc87600"><path d="M 0.730469 0.910156 L 23.933594 0.910156 L 23.933594 96.984375 L 0.730469 96.984375 Z M 0.730469 0.910156 " clip-rule="nonzero"/></clipPath><clipPath id="2392713cec"><path d="M 0.730469 0.910156 L 15.441406 0.910156 L 15.441406 75.429688 C 15.441406 83.695312 18.085938 85.1875 22.152344 85.1875 C 23.375 85.1875 23.847656 85.054688 23.847656 85.054688 L 23.847656 96.707031 C 23.847656 96.707031 21.632812 96.976562 19.339844 96.976562 C 11.878906 96.976562 0.730469 94.941406 0.730469 77.734375 Z M 0.730469 0.910156 " clip-rule="nonzero"/></clipPath><clipPath id="b06ba8b79c"><rect x="0" width="24" y="0" height="97"/></clipPath><clipPath id="29e5751e74"><path d="M 0.84375 196 L 437.496094 196 L 437.496094 226.875 L 0.84375 226.875 Z M 0.84375 196 " clip-rule="nonzero"/></clipPath><clipPath id="db3bb75e87"><rect x="0" width="438" y="0" height="31"/></clipPath><clipPath id="fabec4a147"><rect x="0" width="438" y="0" height="227"/></clipPath><clipPath id="e0424ffe24"><rect x="0" width="438" y="0" height="227"/></clipPath></defs><g transform="matrix(1, 0, 0, 1, 56, 228)"><g clip-path="url(#e0424ffe24)"><g clip-path="url(#633c19f296)"><g><g clip-path="url(#fabec4a147)"><g clip-path="url(#93f2a4800f)"><g clip-path="url(#3b5d88ca47)"><g transform="matrix(1, 0, 0, 1, 114, 44)"><g clip-path="url(#aeeac86891)"><g clip-path="url(#e96f29edb4)"><g clip-path="url(#d26016d2f7)"><rect x="-489.6644" width="1234.8288" fill="#2f3540" height="1746.489556" y="-724.119789" fill-opacity="1"/></g></g></g></g></g></g><g clip-path="url(#ffa90444c4)"><g clip-path="url(#832b8501b1)"><g transform="matrix(1, 0, 0, 1, 83, 44)"><g clip-path="url(#b8b335e2c0)"><g clip-path="url(#2b6700a848)"><g clip-path="url(#6a67aa1922)"><rect x="-458.6644" width="1234.8288" fill="#3270a2" height="1746.489556" y="-724.119789" fill-opacity="1"/></g></g></g></g></g></g><g clip-path="url(#1f85d4f4b8)"><g clip-path="url(#c5792e4e17)"><g transform="matrix(1, 0, 0, 1, 78, 5)"><g clip-path="url(#26a305c8a6)"><g clip-path="url(#1e954f14d7)"><g clip-path="url(#e5143722ab)"><rect x="-453.6644" width="1234.8288" fill="#3270a2" height="1746.489556" y="-685.119789" fill-opacity="1"/></g></g></g></g></g></g><g clip-path="url(#aae912b943)"><g clip-path="url(#b881cdf8c9)"><g transform="matrix(1, 0, 0, 1, 205, 69)"><g clip-path="url(#ae542292b5)"><g clip-path="url(#8de0e4af4b)"><g clip-path="url(#9e8380a45a)"><rect x="-580.6644" width="1234.8288" fill="#2f3540" height="1746.489556" y="-749.119789" fill-opacity="1"/></g></g></g></g></g></g><g clip-path="url(#ca726c2cc9)"><g clip-path="url(#9da03aaf32)"><g transform="matrix(1, 0, 0, 1, 272, 95)"><g clip-path="url(#e740fd8f67)"><g clip-path="url(#cdb6b3f946)"><g clip-path="url(#022cdd862a)"><rect x="-647.6644" width="1234.8288" fill="#2f3540" height="1746.489556" y="-775.119789" fill-opacity="1"/></g></g></g></g></g></g><g clip-path="url(#9e236a1e31)"><g clip-path="url(#30d8271fe0)"><g transform="matrix(1, 0, 0, 1, 341, 69)"><g clip-path="url(#b06ba8b79c)"><g clip-path="url(#1b8cc87600)"><g clip-path="url(#2392713cec)"><path fill="#2f3540" d="M 0.730469 0.910156 L 23.84375 0.910156 L 23.84375 96.984375 L 0.730469 96.984375 Z M 0.730469 0.910156 " fill-opacity="1" fill-rule="nonzero"/></g></g></g></g></g></g><g clip-path="url(#29e5751e74)"><g transform="matrix(1, 0, 0, 1, 0, 196)"><g clip-path="url(#db3bb75e87)"><g fill="#2f3541" fill-opacity="1"><g transform="translate(1.556518, 24.105608)"><g><path d="M 2.625 -17.484375 L 5.125 -17.484375 L 5.125 0 L 2.625 0 Z M 2.625 -17.484375 "/></g></g></g><g fill="#2f3541" fill-opacity="1"><g transform="translate(9.301315, 24.105608)"><g><path d="M 14.765625 -18.53125 L 14.765625 0 L 12.46875 0 L 12.46875 -2.09375 C 11.9375 -1.363281 11.257812 -0.804688 10.4375 -0.421875 C 9.625 -0.0351562 8.726562 0.15625 7.75 0.15625 C 6.46875 0.15625 5.316406 -0.125 4.296875 -0.6875 C 3.273438 -1.257812 2.476562 -2.054688 1.90625 -3.078125 C 1.332031 -4.109375 1.046875 -5.289062 1.046875 -6.625 C 1.046875 -7.957031 1.332031 -9.128906 1.90625 -10.140625 C 2.476562 -11.160156 3.273438 -11.953125 4.296875 -12.515625 C 5.316406 -13.078125 6.46875 -13.359375 7.75 -13.359375 C 8.695312 -13.359375 9.566406 -13.179688 10.359375 -12.828125 C 11.160156 -12.472656 11.832031 -11.945312 12.375 -11.25 L 12.375 -18.53125 Z M 7.9375 -1.953125 C 8.769531 -1.953125 9.53125 -2.144531 10.21875 -2.53125 C 10.90625 -2.925781 11.4375 -3.476562 11.8125 -4.1875 C 12.195312 -4.894531 12.390625 -5.707031 12.390625 -6.625 C 12.390625 -7.539062 12.195312 -8.351562 11.8125 -9.0625 C 11.4375 -9.769531 10.90625 -10.3125 10.21875 -10.6875 C 9.53125 -11.070312 8.769531 -11.265625 7.9375 -11.265625 C 7.09375 -11.265625 6.332031 -11.070312 5.65625 -10.6875 C 4.976562 -10.3125 4.441406 -9.769531 4.046875 -9.0625 C 3.660156 -8.351562 3.46875 -7.539062 3.46875 -6.625 C 3.46875 -5.707031 3.660156 -4.894531 4.046875 -4.1875 C 4.441406 -3.476562 4.976562 -2.925781 5.65625 -2.53125 C 6.332031 -2.144531 7.09375 -1.953125 7.9375 -1.953125 Z M 7.9375 -1.953125 "/></g></g></g><g fill="#2f3541" fill-opacity="1"><g transform="translate(26.339871, 24.105608)"><g><path d="M 14.234375 -6.546875 C 14.234375 -6.359375 14.21875 -6.117188 14.1875 -5.828125 L 3.453125 -5.828125 C 3.597656 -4.660156 4.109375 -3.722656 4.984375 -3.015625 C 5.859375 -2.304688 6.945312 -1.953125 8.25 -1.953125 C 9.832031 -1.953125 11.101562 -2.484375 12.0625 -3.546875 L 13.390625 -2 C 12.785156 -1.300781 12.035156 -0.765625 11.140625 -0.390625 C 10.253906 -0.0234375 9.265625 0.15625 8.171875 0.15625 C 6.773438 0.15625 5.535156 -0.128906 4.453125 -0.703125 C 3.367188 -1.285156 2.53125 -2.09375 1.9375 -3.125 C 1.34375 -4.15625 1.046875 -5.320312 1.046875 -6.625 C 1.046875 -7.90625 1.332031 -9.0625 1.90625 -10.09375 C 2.476562 -11.125 3.269531 -11.925781 4.28125 -12.5 C 5.289062 -13.070312 6.425781 -13.359375 7.6875 -13.359375 C 8.957031 -13.359375 10.085938 -13.070312 11.078125 -12.5 C 12.066406 -11.925781 12.835938 -11.125 13.390625 -10.09375 C 13.953125 -9.0625 14.234375 -7.878906 14.234375 -6.546875 Z M 7.6875 -11.34375 C 6.539062 -11.34375 5.578125 -10.992188 4.796875 -10.296875 C 4.023438 -9.597656 3.578125 -8.679688 3.453125 -7.546875 L 11.9375 -7.546875 C 11.8125 -8.660156 11.359375 -9.570312 10.578125 -10.28125 C 9.804688 -10.988281 8.84375 -11.34375 7.6875 -11.34375 Z M 7.6875 -11.34375 "/></g></g></g><g fill="#2f3541" fill-opacity="1"><g transform="translate(41.629604, 24.105608)"><g><path d="M 9.34375 -13.359375 C 11.03125 -13.359375 12.367188 -12.867188 13.359375 -11.890625 C 14.347656 -10.921875 14.84375 -9.5 14.84375 -7.625 L 14.84375 0 L 12.4375 0 L 12.4375 -7.34375 C 12.4375 -8.625 12.128906 -9.585938 11.515625 -10.234375 C 10.898438 -10.890625 10.019531 -11.21875 8.875 -11.21875 C 7.570312 -11.21875 6.546875 -10.835938 5.796875 -10.078125 C 5.046875 -9.316406 4.671875 -8.234375 4.671875 -6.828125 L 4.671875 0 L 2.28125 0 L 2.28125 -13.234375 L 4.578125 -13.234375 L 4.578125 -11.25 C 5.054688 -11.925781 5.707031 -12.445312 6.53125 -12.8125 C 7.351562 -13.175781 8.289062 -13.359375 9.34375 -13.359375 Z M 9.34375 -13.359375 "/></g></g></g><g fill="#2f3541" fill-opacity="1"><g transform="translate(58.643179, 24.105608)"><g><path d="M 9.71875 -0.78125 C 9.363281 -0.476562 8.925781 -0.242188 8.40625 -0.078125 C 7.894531 0.078125 7.367188 0.15625 6.828125 0.15625 C 5.492188 0.15625 4.457031 -0.203125 3.71875 -0.921875 C 2.988281 -1.640625 2.625 -2.664062 2.625 -4 L 2.625 -11.265625 L 0.375 -11.265625 L 0.375 -13.234375 L 2.625 -13.234375 L 2.625 -16.140625 L 5.015625 -16.140625 L 5.015625 -13.234375 L 8.8125 -13.234375 L 8.8125 -11.265625 L 5.015625 -11.265625 L 5.015625 -4.09375 C 5.015625 -3.375 5.191406 -2.820312 5.546875 -2.4375 C 5.910156 -2.0625 6.425781 -1.875 7.09375 -1.875 C 7.820312 -1.875 8.445312 -2.082031 8.96875 -2.5 Z M 9.71875 -0.78125 "/></g></g></g><g fill="#2f3541" fill-opacity="1"><g transform="translate(68.986236, 24.105608)"><g><path d="M 2.28125 -13.234375 L 4.671875 -13.234375 L 4.671875 0 L 2.28125 0 Z M 3.46875 -15.796875 C 3.007812 -15.796875 2.625 -15.941406 2.3125 -16.234375 C 2 -16.535156 1.84375 -16.90625 1.84375 -17.34375 C 1.84375 -17.769531 2 -18.132812 2.3125 -18.4375 C 2.625 -18.75 3.007812 -18.90625 3.46875 -18.90625 C 3.9375 -18.90625 4.320312 -18.757812 4.625 -18.46875 C 4.9375 -18.175781 5.09375 -17.816406 5.09375 -17.390625 C 5.09375 -16.941406 4.9375 -16.5625 4.625 -16.25 C 4.320312 -15.945312 3.9375 -15.796875 3.46875 -15.796875 Z M 3.46875 -15.796875 "/></g></g></g><g fill="#2f3541" fill-opacity="1"><g transform="translate(75.95655, 24.105608)"><g><path d="M 9.71875 -0.78125 C 9.363281 -0.476562 8.925781 -0.242188 8.40625 -0.078125 C 7.894531 0.078125 7.367188 0.15625 6.828125 0.15625 C 5.492188 0.15625 4.457031 -0.203125 3.71875 -0.921875 C 2.988281 -1.640625 2.625 -2.664062 2.625 -4 L 2.625 -11.265625 L 0.375 -11.265625 L 0.375 -13.234375 L 2.625 -13.234375 L 2.625 -16.140625 L 5.015625 -16.140625 L 5.015625 -13.234375 L 8.8125 -13.234375 L 8.8125 -11.265625 L 5.015625 -11.265625 L 5.015625 -4.09375 C 5.015625 -3.375 5.191406 -2.820312 5.546875 -2.4375 C 5.910156 -2.0625 6.425781 -1.875 7.09375 -1.875 C 7.820312 -1.875 8.445312 -2.082031 8.96875 -2.5 Z M 9.71875 -0.78125 "/></g></g></g><g fill="#2f3541" fill-opacity="1"><g transform="translate(86.049762, 24.105608)"><g><path d="M 13.984375 -13.234375 L 7.5625 1.328125 C 7 2.671875 6.335938 3.617188 5.578125 4.171875 C 4.828125 4.722656 3.914062 5 2.84375 5 C 2.195312 5 1.566406 4.894531 0.953125 4.6875 C 0.347656 4.476562 -0.148438 4.171875 -0.546875 3.765625 L 0.46875 1.96875 C 1.15625 2.625 1.945312 2.953125 2.84375 2.953125 C 3.425781 2.953125 3.910156 2.796875 4.296875 2.484375 C 4.691406 2.179688 5.050781 1.65625 5.375 0.90625 L 5.796875 -0.03125 L -0.046875 -13.234375 L 2.453125 -13.234375 L 7.078125 -2.640625 L 11.640625 -13.234375 Z M 13.984375 -13.234375 "/></g></g></g><g fill="#2f3541" fill-opacity="1"><g transform="translate(100.015383, 24.105608)"><g/></g></g><g fill="#2f3541" fill-opacity="1"><g transform="translate(106.735864, 24.105608)"><g><path d="M 17.8125 -17.484375 L 10.140625 0 L 7.671875 0 L -0.03125 -17.484375 L 2.671875 -17.484375 L 8.96875 -3.125 L 15.3125 -17.484375 Z M 17.8125 -17.484375 "/></g></g></g><g fill="#2f3541" fill-opacity="1"><g transform="translate(123.149768, 24.105608)"><g><path d="M 14.234375 -6.546875 C 14.234375 -6.359375 14.21875 -6.117188 14.1875 -5.828125 L 3.453125 -5.828125 C 3.597656 -4.660156 4.109375 -3.722656 4.984375 -3.015625 C 5.859375 -2.304688 6.945312 -1.953125 8.25 -1.953125 C 9.832031 -1.953125 11.101562 -2.484375 12.0625 -3.546875 L 13.390625 -2 C 12.785156 -1.300781 12.035156 -0.765625 11.140625 -0.390625 C 10.253906 -0.0234375 9.265625 0.15625 8.171875 0.15625 C 6.773438 0.15625 5.535156 -0.128906 4.453125 -0.703125 C 3.367188 -1.285156 2.53125 -2.09375 1.9375 -3.125 C 1.34375 -4.15625 1.046875 -5.320312 1.046875 -6.625 C 1.046875 -7.90625 1.332031 -9.0625 1.90625 -10.09375 C 2.476562 -11.125 3.269531 -11.925781 4.28125 -12.5 C 5.289062 -13.070312 6.425781 -13.359375 7.6875 -13.359375 C 8.957031 -13.359375 10.085938 -13.070312 11.078125 -12.5 C 12.066406 -11.925781 12.835938 -11.125 13.390625 -10.09375 C 13.953125 -9.0625 14.234375 -7.878906 14.234375 -6.546875 Z M 7.6875 -11.34375 C 6.539062 -11.34375 5.578125 -10.992188 4.796875 -10.296875 C 4.023438 -9.597656 3.578125 -8.679688 3.453125 -7.546875 L 11.9375 -7.546875 C 11.8125 -8.660156 11.359375 -9.570312 10.578125 -10.28125 C 9.804688 -10.988281 8.84375 -11.34375 7.6875 -11.34375 Z M 7.6875 -11.34375 "/></g></g></g><g fill="#2f3541" fill-opacity="1"><g transform="translate(138.4395, 24.105608)"><g><path d="M 4.578125 -11.015625 C 4.992188 -11.785156 5.609375 -12.367188 6.421875 -12.765625 C 7.234375 -13.160156 8.222656 -13.359375 9.390625 -13.359375 L 9.390625 -11.046875 C 9.253906 -11.054688 9.070312 -11.0625 8.84375 -11.0625 C 7.539062 -11.0625 6.519531 -10.675781 5.78125 -9.90625 C 5.039062 -9.132812 4.671875 -8.03125 4.671875 -6.59375 L 4.671875 0 L 2.28125 0 L 2.28125 -13.234375 L 4.578125 -13.234375 Z M 4.578125 -11.015625 "/></g></g></g><g fill="#2f3541" fill-opacity="1"><g transform="translate(148.507731, 24.105608)"><g><path d="M 2.28125 -13.234375 L 4.671875 -13.234375 L 4.671875 0 L 2.28125 0 Z M 3.46875 -15.796875 C 3.007812 -15.796875 2.625 -15.941406 2.3125 -16.234375 C 2 -16.535156 1.84375 -16.90625 1.84375 -17.34375 C 1.84375 -17.769531 2 -18.132812 2.3125 -18.4375 C 2.625 -18.75 3.007812 -18.90625 3.46875 -18.90625 C 3.9375 -18.90625 4.320312 -18.757812 4.625 -18.46875 C 4.9375 -18.175781 5.09375 -17.816406 5.09375 -17.390625 C 5.09375 -16.941406 4.9375 -16.5625 4.625 -16.25 C 4.320312 -15.945312 3.9375 -15.796875 3.46875 -15.796875 Z M 3.46875 -15.796875 "/></g></g></g><g fill="#2f3541" fill-opacity="1"><g transform="translate(155.478045, 24.105608)"><g><path d="M 7.125 -16.71875 C 5.6875 -16.71875 4.96875 -15.941406 4.96875 -14.390625 L 4.96875 -13.234375 L 8.8125 -13.234375 L 8.8125 -11.265625 L 5.015625 -11.265625 L 5.015625 0 L 2.625 0 L 2.625 -11.265625 L 0.375 -11.265625 L 0.375 -13.234375 L 2.625 -13.234375 L 2.625 -14.421875 C 2.625 -15.734375 3.003906 -16.769531 3.765625 -17.53125 C 4.535156 -18.300781 5.613281 -18.6875 7 -18.6875 C 7.53125 -18.6875 8.023438 -18.617188 8.484375 -18.484375 C 8.953125 -18.347656 9.351562 -18.15625 9.6875 -17.90625 L 8.96875 -16.09375 C 8.414062 -16.507812 7.800781 -16.71875 7.125 -16.71875 Z M 7.125 -16.71875 "/></g></g></g><g fill="#2f3541" fill-opacity="1"><g transform="translate(166.295891, 24.105608)"><g><path d="M 2.28125 -13.234375 L 4.671875 -13.234375 L 4.671875 0 L 2.28125 0 Z M 3.46875 -15.796875 C 3.007812 -15.796875 2.625 -15.941406 2.3125 -16.234375 C 2 -16.535156 1.84375 -16.90625 1.84375 -17.34375 C 1.84375 -17.769531 2 -18.132812 2.3125 -18.4375 C 2.625 -18.75 3.007812 -18.90625 3.46875 -18.90625 C 3.9375 -18.90625 4.320312 -18.757812 4.625 -18.46875 C 4.9375 -18.175781 5.09375 -17.816406 5.09375 -17.390625 C 5.09375 -16.941406 4.9375 -16.5625 4.625 -16.25 C 4.320312 -15.945312 3.9375 -15.796875 3.46875 -15.796875 Z M 3.46875 -15.796875 "/></g></g></g><g fill="#2f3541" fill-opacity="1"><g transform="translate(173.266206, 24.105608)"><g><path d="M 8.046875 0.15625 C 6.691406 0.15625 5.484375 -0.132812 4.421875 -0.71875 C 3.367188 -1.300781 2.539062 -2.101562 1.9375 -3.125 C 1.34375 -4.15625 1.046875 -5.320312 1.046875 -6.625 C 1.046875 -7.914062 1.34375 -9.070312 1.9375 -10.09375 C 2.539062 -11.125 3.367188 -11.925781 4.421875 -12.5 C 5.484375 -13.070312 6.691406 -13.359375 8.046875 -13.359375 C 9.242188 -13.359375 10.3125 -13.117188 11.25 -12.640625 C 12.195312 -12.160156 12.925781 -11.460938 13.4375 -10.546875 L 11.625 -9.375 C 11.207031 -10 10.6875 -10.46875 10.0625 -10.78125 C 9.445312 -11.101562 8.765625 -11.265625 8.015625 -11.265625 C 7.148438 -11.265625 6.367188 -11.070312 5.671875 -10.6875 C 4.984375 -10.3125 4.441406 -9.769531 4.046875 -9.0625 C 3.660156 -8.351562 3.46875 -7.539062 3.46875 -6.625 C 3.46875 -5.6875 3.660156 -4.863281 4.046875 -4.15625 C 4.441406 -3.445312 4.984375 -2.898438 5.671875 -2.515625 C 6.367188 -2.140625 7.148438 -1.953125 8.015625 -1.953125 C 8.765625 -1.953125 9.445312 -2.109375 10.0625 -2.421875 C 10.6875 -2.734375 11.207031 -3.207031 11.625 -3.84375 L 13.4375 -2.703125 C 12.925781 -1.785156 12.195312 -1.078125 11.25 -0.578125 C 10.3125 -0.0859375 9.242188 0.15625 8.046875 0.15625 Z M 8.046875 0.15625 "/></g></g></g><g fill="#2f3541" fill-opacity="1"><g transform="translate(187.531623, 24.105608)"><g><path d="M 7.09375 -13.359375 C 8.925781 -13.359375 10.328125 -12.910156 11.296875 -12.015625 C 12.273438 -11.117188 12.765625 -9.78125 12.765625 -8 L 12.765625 0 L 10.5 0 L 10.5 -1.75 C 10.09375 -1.132812 9.519531 -0.660156 8.78125 -0.328125 C 8.039062 -0.00390625 7.160156 0.15625 6.140625 0.15625 C 4.660156 0.15625 3.472656 -0.203125 2.578125 -0.921875 C 1.691406 -1.640625 1.25 -2.582031 1.25 -3.75 C 1.25 -4.914062 1.671875 -5.851562 2.515625 -6.5625 C 3.367188 -7.269531 4.722656 -7.625 6.578125 -7.625 L 10.375 -7.625 L 10.375 -8.09375 C 10.375 -9.125 10.070312 -9.914062 9.46875 -10.46875 C 8.863281 -11.019531 7.984375 -11.296875 6.828125 -11.296875 C 6.035156 -11.296875 5.265625 -11.164062 4.515625 -10.90625 C 3.765625 -10.644531 3.132812 -10.300781 2.625 -9.875 L 1.625 -11.671875 C 2.300781 -12.210938 3.113281 -12.628906 4.0625 -12.921875 C 5.019531 -13.210938 6.03125 -13.359375 7.09375 -13.359375 Z M 6.546875 -1.703125 C 7.460938 -1.703125 8.253906 -1.90625 8.921875 -2.3125 C 9.585938 -2.71875 10.070312 -3.296875 10.375 -4.046875 L 10.375 -5.890625 L 6.671875 -5.890625 C 4.640625 -5.890625 3.625 -5.207031 3.625 -3.84375 C 3.625 -3.175781 3.878906 -2.648438 4.390625 -2.265625 C 4.910156 -1.890625 5.628906 -1.703125 6.546875 -1.703125 Z M 6.546875 -1.703125 "/></g></g></g><g fill="#2f3541" fill-opacity="1"><g transform="translate(202.471586, 24.105608)"><g><path d="M 9.71875 -0.78125 C 9.363281 -0.476562 8.925781 -0.242188 8.40625 -0.078125 C 7.894531 0.078125 7.367188 0.15625 6.828125 0.15625 C 5.492188 0.15625 4.457031 -0.203125 3.71875 -0.921875 C 2.988281 -1.640625 2.625 -2.664062 2.625 -4 L 2.625 -11.265625 L 0.375 -11.265625 L 0.375 -13.234375 L 2.625 -13.234375 L 2.625 -16.140625 L 5.015625 -16.140625 L 5.015625 -13.234375 L 8.8125 -13.234375 L 8.8125 -11.265625 L 5.015625 -11.265625 L 5.015625 -4.09375 C 5.015625 -3.375 5.191406 -2.820312 5.546875 -2.4375 C 5.910156 -2.0625 6.425781 -1.875 7.09375 -1.875 C 7.820312 -1.875 8.445312 -2.082031 8.96875 -2.5 Z M 9.71875 -0.78125 "/></g></g></g><g fill="#2f3541" fill-opacity="1"><g transform="translate(212.814643, 24.105608)"><g><path d="M 2.28125 -13.234375 L 4.671875 -13.234375 L 4.671875 0 L 2.28125 0 Z M 3.46875 -15.796875 C 3.007812 -15.796875 2.625 -15.941406 2.3125 -16.234375 C 2 -16.535156 1.84375 -16.90625 1.84375 -17.34375 C 1.84375 -17.769531 2 -18.132812 2.3125 -18.4375 C 2.625 -18.75 3.007812 -18.90625 3.46875 -18.90625 C 3.9375 -18.90625 4.320312 -18.757812 4.625 -18.46875 C 4.9375 -18.175781 5.09375 -17.816406 5.09375 -17.390625 C 5.09375 -16.941406 4.9375 -16.5625 4.625 -16.25 C 4.320312 -15.945312 3.9375 -15.796875 3.46875 -15.796875 Z M 3.46875 -15.796875 "/></g></g></g><g fill="#2f3541" fill-opacity="1"><g transform="translate(219.784957, 24.105608)"><g><path d="M 7.9375 0.15625 C 6.625 0.15625 5.441406 -0.132812 4.390625 -0.71875 C 3.347656 -1.300781 2.53125 -2.101562 1.9375 -3.125 C 1.34375 -4.15625 1.046875 -5.320312 1.046875 -6.625 C 1.046875 -7.914062 1.34375 -9.070312 1.9375 -10.09375 C 2.53125 -11.125 3.347656 -11.925781 4.390625 -12.5 C 5.441406 -13.070312 6.625 -13.359375 7.9375 -13.359375 C 9.257812 -13.359375 10.441406 -13.070312 11.484375 -12.5 C 12.523438 -11.925781 13.335938 -11.125 13.921875 -10.09375 C 14.515625 -9.070312 14.8125 -7.914062 14.8125 -6.625 C 14.8125 -5.320312 14.515625 -4.15625 13.921875 -3.125 C 13.335938 -2.101562 12.523438 -1.300781 11.484375 -0.71875 C 10.441406 -0.132812 9.257812 0.15625 7.9375 0.15625 Z M 7.9375 -1.953125 C 8.789062 -1.953125 9.554688 -2.144531 10.234375 -2.53125 C 10.910156 -2.925781 11.4375 -3.476562 11.8125 -4.1875 C 12.195312 -4.894531 12.390625 -5.707031 12.390625 -6.625 C 12.390625 -7.539062 12.195312 -8.351562 11.8125 -9.0625 C 11.4375 -9.769531 10.910156 -10.3125 10.234375 -10.6875 C 9.554688 -11.070312 8.789062 -11.265625 7.9375 -11.265625 C 7.09375 -11.265625 6.332031 -11.070312 5.65625 -10.6875 C 4.976562 -10.3125 4.441406 -9.769531 4.046875 -9.0625 C 3.660156 -8.351562 3.46875 -7.539062 3.46875 -6.625 C 3.46875 -5.707031 3.660156 -4.894531 4.046875 -4.1875 C 4.441406 -3.476562 4.976562 -2.925781 5.65625 -2.53125 C 6.332031 -2.144531 7.09375 -1.953125 7.9375 -1.953125 Z M 7.9375 -1.953125 "/></g></g></g><g fill="#2f3541" fill-opacity="1"><g transform="translate(235.649312, 24.105608)"><g><path d="M 9.34375 -13.359375 C 11.03125 -13.359375 12.367188 -12.867188 13.359375 -11.890625 C 14.347656 -10.921875 14.84375 -9.5 14.84375 -7.625 L 14.84375 0 L 12.4375 0 L 12.4375 -7.34375 C 12.4375 -8.625 12.128906 -9.585938 11.515625 -10.234375 C 10.898438 -10.890625 10.019531 -11.21875 8.875 -11.21875 C 7.570312 -11.21875 6.546875 -10.835938 5.796875 -10.078125 C 5.046875 -9.316406 4.671875 -8.234375 4.671875 -6.828125 L 4.671875 0 L 2.28125 0 L 2.28125 -13.234375 L 4.578125 -13.234375 L 4.578125 -11.25 C 5.054688 -11.925781 5.707031 -12.445312 6.53125 -12.8125 C 7.351562 -13.175781 8.289062 -13.359375 9.34375 -13.359375 Z M 9.34375 -13.359375 "/></g></g></g><g fill="#2f3541" fill-opacity="1"><g transform="translate(252.662887, 24.105608)"><g><path d="M 2.84375 0.15625 C 2.382812 0.15625 1.988281 -0.00390625 1.65625 -0.328125 C 1.320312 -0.660156 1.15625 -1.078125 1.15625 -1.578125 C 1.15625 -2.054688 1.320312 -2.457031 1.65625 -2.78125 C 1.988281 -3.101562 2.382812 -3.265625 2.84375 -3.265625 C 3.3125 -3.265625 3.703125 -3.109375 4.015625 -2.796875 C 4.335938 -2.484375 4.5 -2.078125 4.5 -1.578125 C 4.5 -1.078125 4.332031 -0.660156 4 -0.328125 C 3.675781 -0.00390625 3.289062 0.15625 2.84375 0.15625 Z M 2.84375 0.15625 "/></g></g></g><g fill="#2f3541" fill-opacity="1"><g transform="translate(258.334071, 24.105608)"><g/></g></g><g fill="#326fa3" fill-opacity="1"><g transform="translate(265.057988, 24.105608)"><g><path d="M 18.84375 0 L 18.8125 -12.734375 L 12.484375 -2.125 L 11.34375 -2.125 L 5.015625 -12.671875 L 5.015625 0 L 2.625 0 L 2.625 -17.484375 L 4.671875 -17.484375 L 11.96875 -5.203125 L 19.15625 -17.484375 L 21.21875 -17.484375 L 21.234375 0 Z M 18.84375 0 "/></g></g></g><g fill="#326fa3" fill-opacity="1"><g transform="translate(288.916962, 24.105608)"><g><path d="M 7.09375 -13.359375 C 8.925781 -13.359375 10.328125 -12.910156 11.296875 -12.015625 C 12.273438 -11.117188 12.765625 -9.78125 12.765625 -8 L 12.765625 0 L 10.5 0 L 10.5 -1.75 C 10.09375 -1.132812 9.519531 -0.660156 8.78125 -0.328125 C 8.039062 -0.00390625 7.160156 0.15625 6.140625 0.15625 C 4.660156 0.15625 3.472656 -0.203125 2.578125 -0.921875 C 1.691406 -1.640625 1.25 -2.582031 1.25 -3.75 C 1.25 -4.914062 1.671875 -5.851562 2.515625 -6.5625 C 3.367188 -7.269531 4.722656 -7.625 6.578125 -7.625 L 10.375 -7.625 L 10.375 -8.09375 C 10.375 -9.125 10.070312 -9.914062 9.46875 -10.46875 C 8.863281 -11.019531 7.984375 -11.296875 6.828125 -11.296875 C 6.035156 -11.296875 5.265625 -11.164062 4.515625 -10.90625 C 3.765625 -10.644531 3.132812 -10.300781 2.625 -9.875 L 1.625 -11.671875 C 2.300781 -12.210938 3.113281 -12.628906 4.0625 -12.921875 C 5.019531 -13.210938 6.03125 -13.359375 7.09375 -13.359375 Z M 6.546875 -1.703125 C 7.460938 -1.703125 8.253906 -1.90625 8.921875 -2.3125 C 9.585938 -2.71875 10.070312 -3.296875 10.375 -4.046875 L 10.375 -5.890625 L 6.671875 -5.890625 C 4.640625 -5.890625 3.625 -5.207031 3.625 -3.84375 C 3.625 -3.175781 3.878906 -2.648438 4.390625 -2.265625 C 4.910156 -1.890625 5.628906 -1.703125 6.546875 -1.703125 Z M 6.546875 -1.703125 "/></g></g></g><g fill="#326fa3" fill-opacity="1"><g transform="translate(303.93188, 24.105608)"><g><path d="M 14.765625 -18.53125 L 14.765625 0 L 12.46875 0 L 12.46875 -2.09375 C 11.9375 -1.363281 11.257812 -0.804688 10.4375 -0.421875 C 9.625 -0.0351562 8.726562 0.15625 7.75 0.15625 C 6.46875 0.15625 5.316406 -0.125 4.296875 -0.6875 C 3.273438 -1.257812 2.476562 -2.054688 1.90625 -3.078125 C 1.332031 -4.109375 1.046875 -5.289062 1.046875 -6.625 C 1.046875 -7.957031 1.332031 -9.128906 1.90625 -10.140625 C 2.476562 -11.160156 3.273438 -11.953125 4.296875 -12.515625 C 5.316406 -13.078125 6.46875 -13.359375 7.75 -13.359375 C 8.695312 -13.359375 9.566406 -13.179688 10.359375 -12.828125 C 11.160156 -12.472656 11.832031 -11.945312 12.375 -11.25 L 12.375 -18.53125 Z M 7.9375 -1.953125 C 8.769531 -1.953125 9.53125 -2.144531 10.21875 -2.53125 C 10.90625 -2.925781 11.4375 -3.476562 11.8125 -4.1875 C 12.195312 -4.894531 12.390625 -5.707031 12.390625 -6.625 C 12.390625 -7.539062 12.195312 -8.351562 11.8125 -9.0625 C 11.4375 -9.769531 10.90625 -10.3125 10.21875 -10.6875 C 9.53125 -11.070312 8.769531 -11.265625 7.9375 -11.265625 C 7.09375 -11.265625 6.332031 -11.070312 5.65625 -10.6875 C 4.976562 -10.3125 4.441406 -9.769531 4.046875 -9.0625 C 3.660156 -8.351562 3.46875 -7.539062 3.46875 -6.625 C 3.46875 -5.707031 3.660156 -4.894531 4.046875 -4.1875 C 4.441406 -3.476562 4.976562 -2.925781 5.65625 -2.53125 C 6.332031 -2.144531 7.09375 -1.953125 7.9375 -1.953125 Z M 7.9375 -1.953125 "/></g></g></g><g fill="#326fa3" fill-opacity="1"><g transform="translate(320.970436, 24.105608)"><g><path d="M 14.234375 -6.546875 C 14.234375 -6.359375 14.21875 -6.117188 14.1875 -5.828125 L 3.453125 -5.828125 C 3.597656 -4.660156 4.109375 -3.722656 4.984375 -3.015625 C 5.859375 -2.304688 6.945312 -1.953125 8.25 -1.953125 C 9.832031 -1.953125 11.101562 -2.484375 12.0625 -3.546875 L 13.390625 -2 C 12.785156 -1.300781 12.035156 -0.765625 11.140625 -0.390625 C 10.253906 -0.0234375 9.265625 0.15625 8.171875 0.15625 C 6.773438 0.15625 5.535156 -0.128906 4.453125 -0.703125 C 3.367188 -1.285156 2.53125 -2.09375 1.9375 -3.125 C 1.34375 -4.15625 1.046875 -5.320312 1.046875 -6.625 C 1.046875 -7.90625 1.332031 -9.0625 1.90625 -10.09375 C 2.476562 -11.125 3.269531 -11.925781 4.28125 -12.5 C 5.289062 -13.070312 6.425781 -13.359375 7.6875 -13.359375 C 8.957031 -13.359375 10.085938 -13.070312 11.078125 -12.5 C 12.066406 -11.925781 12.835938 -11.125 13.390625 -10.09375 C 13.953125 -9.0625 14.234375 -7.878906 14.234375 -6.546875 Z M 7.6875 -11.34375 C 6.539062 -11.34375 5.578125 -10.992188 4.796875 -10.296875 C 4.023438 -9.597656 3.578125 -8.679688 3.453125 -7.546875 L 11.9375 -7.546875 C 11.8125 -8.660156 11.359375 -9.570312 10.578125 -10.28125 C 9.804688 -10.988281 8.84375 -11.34375 7.6875 -11.34375 Z M 7.6875 -11.34375 "/></g></g></g><g fill="#326fa3" fill-opacity="1"><g transform="translate(336.260169, 24.105608)"><g/></g></g><g fill="#326fa3" fill-opacity="1"><g transform="translate(342.980649, 24.105608)"><g><path d="M 7.71875 0.203125 C 6.40625 0.203125 5.132812 0 3.90625 -0.40625 C 2.6875 -0.820312 1.726562 -1.351562 1.03125 -2 L 1.953125 -3.953125 C 2.617188 -3.347656 3.472656 -2.859375 4.515625 -2.484375 C 5.554688 -2.109375 6.625 -1.921875 7.71875 -1.921875 C 9.164062 -1.921875 10.25 -2.164062 10.96875 -2.65625 C 11.6875 -3.144531 12.046875 -3.800781 12.046875 -4.625 C 12.046875 -5.21875 11.847656 -5.703125 11.453125 -6.078125 C 11.066406 -6.453125 10.582031 -6.738281 10 -6.9375 C 9.425781 -7.144531 8.613281 -7.375 7.5625 -7.625 C 6.25 -7.9375 5.1875 -8.25 4.375 -8.5625 C 3.570312 -8.882812 2.882812 -9.375 2.3125 -10.03125 C 1.738281 -10.6875 1.453125 -11.570312 1.453125 -12.6875 C 1.453125 -13.625 1.695312 -14.46875 2.1875 -15.21875 C 2.675781 -15.96875 3.421875 -16.566406 4.421875 -17.015625 C 5.421875 -17.460938 6.660156 -17.6875 8.140625 -17.6875 C 9.171875 -17.6875 10.1875 -17.550781 11.1875 -17.28125 C 12.1875 -17.019531 13.046875 -16.640625 13.765625 -16.140625 L 12.9375 -14.140625 C 12.207031 -14.609375 11.425781 -14.960938 10.59375 -15.203125 C 9.757812 -15.441406 8.941406 -15.5625 8.140625 -15.5625 C 6.722656 -15.5625 5.660156 -15.300781 4.953125 -14.78125 C 4.242188 -14.269531 3.890625 -13.609375 3.890625 -12.796875 C 3.890625 -12.191406 4.085938 -11.703125 4.484375 -11.328125 C 4.890625 -10.953125 5.390625 -10.660156 5.984375 -10.453125 C 6.578125 -10.242188 7.378906 -10.023438 8.390625 -9.796875 C 9.710938 -9.472656 10.769531 -9.15625 11.5625 -8.84375 C 12.363281 -8.53125 13.050781 -8.046875 13.625 -7.390625 C 14.195312 -6.742188 14.484375 -5.867188 14.484375 -4.765625 C 14.484375 -3.847656 14.234375 -3.007812 13.734375 -2.25 C 13.234375 -1.5 12.472656 -0.898438 11.453125 -0.453125 C 10.441406 -0.015625 9.195312 0.203125 7.71875 0.203125 Z M 7.71875 0.203125 "/></g></g></g><g fill="#326fa3" fill-opacity="1"><g transform="translate(358.495223, 24.105608)"><g><path d="M 2.28125 -13.234375 L 4.671875 -13.234375 L 4.671875 0 L 2.28125 0 Z M 3.46875 -15.796875 C 3.007812 -15.796875 2.625 -15.941406 2.3125 -16.234375 C 2 -16.535156 1.84375 -16.90625 1.84375 -17.34375 C 1.84375 -17.769531 2 -18.132812 2.3125 -18.4375 C 2.625 -18.75 3.007812 -18.90625 3.46875 -18.90625 C 3.9375 -18.90625 4.320312 -18.757812 4.625 -18.46875 C 4.9375 -18.175781 5.09375 -17.816406 5.09375 -17.390625 C 5.09375 -16.941406 4.9375 -16.5625 4.625 -16.25 C 4.320312 -15.945312 3.9375 -15.796875 3.46875 -15.796875 Z M 3.46875 -15.796875 "/></g></g></g><g fill="#326fa3" fill-opacity="1"><g transform="translate(365.465537, 24.105608)"><g><path d="M 18.84375 -13.359375 C 20.507812 -13.359375 21.828125 -12.875 22.796875 -11.90625 C 23.773438 -10.945312 24.265625 -9.519531 24.265625 -7.625 L 24.265625 0 L 21.859375 0 L 21.859375 -7.34375 C 21.859375 -8.625 21.5625 -9.585938 20.96875 -10.234375 C 20.382812 -10.890625 19.539062 -11.21875 18.4375 -11.21875 C 17.21875 -11.21875 16.25 -10.835938 15.53125 -10.078125 C 14.820312 -9.316406 14.46875 -8.234375 14.46875 -6.828125 L 14.46875 0 L 12.0625 0 L 12.0625 -7.34375 C 12.0625 -8.625 11.765625 -9.585938 11.171875 -10.234375 C 10.585938 -10.890625 9.742188 -11.21875 8.640625 -11.21875 C 7.429688 -11.21875 6.46875 -10.835938 5.75 -10.078125 C 5.03125 -9.316406 4.671875 -8.234375 4.671875 -6.828125 L 4.671875 0 L 2.28125 0 L 2.28125 -13.234375 L 4.578125 -13.234375 L 4.578125 -11.265625 C 5.054688 -11.953125 5.6875 -12.472656 6.46875 -12.828125 C 7.25 -13.179688 8.140625 -13.359375 9.140625 -13.359375 C 10.171875 -13.359375 11.085938 -13.148438 11.890625 -12.734375 C 12.691406 -12.328125 13.304688 -11.722656 13.734375 -10.921875 C 14.234375 -11.679688 14.929688 -12.273438 15.828125 -12.703125 C 16.722656 -13.140625 17.726562 -13.359375 18.84375 -13.359375 Z M 18.84375 -13.359375 "/></g></g></g><g fill="#326fa3" fill-opacity="1"><g transform="translate(391.872798, 24.105608)"><g><path d="M 9.296875 -13.359375 C 10.578125 -13.359375 11.722656 -13.078125 12.734375 -12.515625 C 13.753906 -11.953125 14.550781 -11.160156 15.125 -10.140625 C 15.695312 -9.128906 15.984375 -7.957031 15.984375 -6.625 C 15.984375 -5.289062 15.695312 -4.109375 15.125 -3.078125 C 14.550781 -2.054688 13.753906 -1.257812 12.734375 -0.6875 C 11.722656 -0.125 10.578125 0.15625 9.296875 0.15625 C 8.347656 0.15625 7.476562 -0.0234375 6.6875 -0.390625 C 5.894531 -0.765625 5.222656 -1.300781 4.671875 -2 L 4.671875 4.84375 L 2.28125 4.84375 L 2.28125 -13.234375 L 4.578125 -13.234375 L 4.578125 -11.140625 C 5.109375 -11.878906 5.78125 -12.429688 6.59375 -12.796875 C 7.40625 -13.171875 8.304688 -13.359375 9.296875 -13.359375 Z M 9.09375 -1.953125 C 9.945312 -1.953125 10.707031 -2.144531 11.375 -2.53125 C 12.050781 -2.925781 12.582031 -3.476562 12.96875 -4.1875 C 13.363281 -4.894531 13.5625 -5.707031 13.5625 -6.625 C 13.5625 -7.539062 13.363281 -8.351562 12.96875 -9.0625 C 12.582031 -9.769531 12.050781 -10.3125 11.375 -10.6875 C 10.707031 -11.070312 9.945312 -11.265625 9.09375 -11.265625 C 8.257812 -11.265625 7.503906 -11.066406 6.828125 -10.671875 C 6.160156 -10.285156 5.628906 -9.742188 5.234375 -9.046875 C 4.835938 -8.347656 4.640625 -7.539062 4.640625 -6.625 C 4.640625 -5.707031 4.832031 -4.894531 5.21875 -4.1875 C 5.601562 -3.476562 6.132812 -2.925781 6.8125 -2.53125 C 7.5 -2.144531 8.257812 -1.953125 9.09375 -1.953125 Z M 9.09375 -1.953125 "/></g></g></g><g fill="#326fa3" fill-opacity="1"><g transform="translate(408.911354, 24.105608)"><g><path d="M 2.28125 -18.53125 L 4.671875 -18.53125 L 4.671875 0 L 2.28125 0 Z M 2.28125 -18.53125 "/></g></g></g><g fill="#326fa3" fill-opacity="1"><g transform="translate(415.881668, 24.105608)"><g><path d="M 14.234375 -6.546875 C 14.234375 -6.359375 14.21875 -6.117188 14.1875 -5.828125 L 3.453125 -5.828125 C 3.597656 -4.660156 4.109375 -3.722656 4.984375 -3.015625 C 5.859375 -2.304688 6.945312 -1.953125 8.25 -1.953125 C 9.832031 -1.953125 11.101562 -2.484375 12.0625 -3.546875 L 13.390625 -2 C 12.785156 -1.300781 12.035156 -0.765625 11.140625 -0.390625 C 10.253906 -0.0234375 9.265625 0.15625 8.171875 0.15625 C 6.773438 0.15625 5.535156 -0.128906 4.453125 -0.703125 C 3.367188 -1.285156 2.53125 -2.09375 1.9375 -3.125 C 1.34375 -4.15625 1.046875 -5.320312 1.046875 -6.625 C 1.046875 -7.90625 1.332031 -9.0625 1.90625 -10.09375 C 2.476562 -11.125 3.269531 -11.925781 4.28125 -12.5 C 5.289062 -13.070312 6.425781 -13.359375 7.6875 -13.359375 C 8.957031 -13.359375 10.085938 -13.070312 11.078125 -12.5 C 12.066406 -11.925781 12.835938 -11.125 13.390625 -10.09375 C 13.953125 -9.0625 14.234375 -7.878906 14.234375 -6.546875 Z M 7.6875 -11.34375 C 6.539062 -11.34375 5.578125 -10.992188 4.796875 -10.296875 C 4.023438 -9.597656 3.578125 -8.679688 3.453125 -7.546875 L 11.9375 -7.546875 C 11.8125 -8.660156 11.359375 -9.570312 10.578125 -10.28125 C 9.804688 -10.988281 8.84375 -11.34375 7.6875 -11.34375 Z M 7.6875 -11.34375 "/></g></g></g><g fill="#326fa3" fill-opacity="1"><g transform="translate(431.171401, 24.105608)"><g><path d="M 2.84375 0.15625 C 2.382812 0.15625 1.988281 -0.00390625 1.65625 -0.328125 C 1.320312 -0.660156 1.15625 -1.078125 1.15625 -1.578125 C 1.15625 -2.054688 1.320312 -2.457031 1.65625 -2.78125 C 1.988281 -3.101562 2.382812 -3.265625 2.84375 -3.265625 C 3.3125 -3.265625 3.703125 -3.109375 4.015625 -2.796875 C 4.335938 -2.484375 4.5 -2.078125 4.5 -1.578125 C 4.5 -1.078125 4.332031 -0.660156 4 -0.328125 C 3.675781 -0.00390625 3.289062 0.15625 2.84375 0.15625 Z M 2.84375 0.15625 "/></g></g></g></g></g></g></g></g></g></g></g></svg>