<svg xmlns="http://www.w3.org/2000/svg" width="533" height="533" fill="none" viewBox="0 0 533 533">
  <g clip-path="url(#a)">
    <path fill="#EB3C3F" d="M266.38 80.68v371.64l-136.43 78.16c-12.69 7.16-28.55-1.79-28.55-16.1V18.61c0-14.31 15.86-23.25 28.55-16.1l136.43 78.16v.01Z"/>
    <path fill="#FFCB00" d="M266.38 80.68v371.64l136.43 78.16c12.7 7.16 28.55-1.79 28.55-16.1V18.61c0-14.31-15.86-23.25-28.55-16.1L266.38 80.67v.01Z"/>
    <path fill="#0071CE" d="M431.36 452.43V80.57h82.59c10.38 0 18.81 8.41 18.81 18.81v334.25c0 10.38-8.42 18.8-18.81 18.8h-82.59Z"/>
    <path fill="#CE0E2D" d="M101.4 452.43V80.57H18.81C8.42 80.57 0 88.98 0 99.38v334.25c0 10.38 8.42 18.8 18.81 18.8h82.59Z"/>
  </g>
  <defs>
    <clipPath id="a">
      <path fill="#fff" d="M0 0h532.76v533H0z"/>
    </clipPath>
  </defs>
</svg>
