<svg width="59" height="34" viewBox="0 0 59 34" fill="none" xmlns="http://www.w3.org/2000/svg">
<path d="M23.56 5.19999C23.56 5.25333 23.5334 5.31999 23.48 5.39999C23.4534 5.45333 23.0667 6.19999 22.32 7.63999C21.4934 9.18666 19.32 13.2267 15.8 19.76C19.7467 18.2933 23.28 16.1067 26.4 13.2C29.52 10.2667 31.08 7.69333 31.08 5.47999C31.08 4.27999 30.4934 3.29333 29.32 2.51999C28.1467 1.74666 26.3734 1.35999 24 1.35999C21.6267 1.35999 19.0667 1.86666 16.32 2.87999C13.6 3.86666 11.2 5.05333 9.12003 6.43999C7.04003 7.82666 5.3067 9.25333 3.92003 10.72C2.5067 12.1867 1.80003 13.3867 1.80003 14.32C1.80003 15.36 2.64003 15.88 4.32003 15.88C5.97337 15.88 7.8667 15.3333 10 14.24C12.16 13.12 14.0934 11.64 15.8 9.79999C16.0934 9.45333 16.28 9.27999 16.36 9.27999C16.5467 9.27999 16.64 9.37333 16.64 9.56C16.64 9.61333 16.5467 9.79999 16.36 10.12C15.48 11.4533 13.52 13.0267 10.48 14.84C7.4667 16.6267 4.97337 17.52 3.00003 17.52C1.00003 17.52 3.3617e-05 16.8933 3.3617e-05 15.64C3.3617e-05 14.52 0.800034 13.08 2.40003 11.32C3.97337 9.53333 5.9467 7.79999 8.32003 6.11999C10.6934 4.43999 13.4534 2.99999 16.6 1.79999C19.7467 0.599995 22.64 -5.72205e-06 25.28 -5.72205e-06C27.9467 -5.72205e-06 29.9067 0.426661 31.16 1.27999C32.4134 2.10666 33.04 3.18666 33.04 4.51999C33.04 6.83999 31.56 9.47999 28.6 12.44C25.6667 15.4 22.12 17.7733 17.96 19.56C20.6534 19.5867 22.8934 20.76 24.68 23.08C26.4667 25.3733 27.3734 28.04 27.4 31.08C27.4 31.4533 27.3334 31.64 27.2 31.64C26.9867 31.64 26.84 31.4 26.76 30.92C26.68 30.4667 26.5867 30.0133 26.48 29.56C26.3734 29.1067 26.04 28.3067 25.48 27.16C24.9467 26.0133 24.3067 25 23.56 24.12C22.84 23.24 21.7867 22.44 20.4 21.72C19.0134 21 17.4534 20.64 15.72 20.64H15.28C13.36 24.1333 11.7467 27.0267 10.44 29.32C10.28 29.6667 9.9867 29.9333 9.56003 30.12C9.13337 30.3067 8.80003 30.4 8.56003 30.4C8.3467 30.4 8.24003 30.3333 8.24003 30.2L13.16 21.24C12.0934 21.5067 11 21.7067 9.88003 21.84C9.40003 21.84 9.16003 21.76 9.16003 21.6C9.16003 21.3067 9.3067 21.1467 9.60003 21.12C10.8267 21.04 12.16 20.8133 13.6 20.44L21.64 5.79999C21.72 5.58666 21.96 5.41333 22.36 5.27999C22.76 5.11999 23.0934 5.03999 23.36 5.03999L23.56 5.19999ZM57.1782 26.76C57.1782 27.8 56.4715 28.4933 55.0582 28.84C54.9782 28.84 54.9382 28.7867 54.9382 28.68C54.9382 28.5733 55.0315 28.4533 55.2182 28.32C55.7515 27.92 56.0182 27.48 56.0182 27C56.0182 26.0667 55.2715 25.3867 53.7782 24.96C51.8048 27.3867 49.0582 29.4 45.5382 31C42.0448 32.6 38.9382 33.4 36.2182 33.4C33.4982 33.4 32.1382 32.84 32.1382 31.72C32.1382 30.7867 33.0582 29.68 34.8982 28.4C36.7648 27.0933 39.1515 25.96 42.0582 25C44.9915 24.0133 47.7515 23.52 50.3382 23.52C51.6182 23.52 52.7115 23.6133 53.6182 23.8C54.4448 22.3333 54.8582 20.8 54.8582 19.2C54.8582 18.2667 54.4448 17.4933 53.6182 16.88C52.7915 16.24 51.6848 15.92 50.2982 15.92C48.9115 15.92 47.5915 16.2 46.3382 16.76C46.0715 16.9467 45.8582 17.04 45.6982 17.04C45.4048 17.04 45.2582 16.9733 45.2582 16.84C45.2582 16.68 45.4582 16.4933 45.8582 16.28C46.4448 16.0933 47.5648 15.3733 49.2182 14.12C50.8982 12.8667 52.5248 11.3467 54.0982 9.56C55.6982 7.74666 56.4982 6.22666 56.4982 4.99999C56.4982 2.99999 54.3382 1.99999 50.0182 1.99999C46.9782 1.99999 43.7382 2.62666 40.2982 3.87999C36.8848 5.10666 34.0048 6.71999 31.6582 8.71999C29.3115 10.6933 28.1382 12.6267 28.1382 14.52C28.1382 15.5333 28.7648 16.04 30.0182 16.04C31.8048 16.04 33.5648 15.6 35.2982 14.72C37.0315 13.8133 39.2982 12.1867 42.0982 9.83999C42.4448 9.43999 42.6848 9.23999 42.8182 9.23999C43.1115 9.23999 43.2582 9.33333 43.2582 9.51999C43.2582 9.57333 43.1648 9.75999 42.9782 10.08C42.2848 10.7733 41.3115 11.6133 40.0582 12.6C38.8048 13.5867 37.6448 14.4133 36.5782 15.08C35.5115 15.7467 34.2982 16.3467 32.9382 16.88C31.6048 17.4133 30.3915 17.68 29.2982 17.68C27.4048 17.68 26.4582 16.84 26.4582 15.16C26.4582 12.9733 27.8848 10.7333 30.7382 8.43999C33.5915 6.11999 36.9382 4.25333 40.7782 2.83999C44.6448 1.39999 48.0982 0.679993 51.1382 0.679993C55.9648 0.679993 58.3782 1.86666 58.3782 4.23999C58.3782 5.97333 57.2182 8.02666 54.8982 10.4C52.6048 12.7467 50.5382 14.36 48.6982 15.24C49.5248 15.08 50.2982 15 51.0182 15C52.6982 15 53.9915 15.32 54.8982 15.96C55.8048 16.6 56.2582 17.4667 56.2582 18.56C56.2582 20.4267 55.6582 22.2533 54.4582 24.04C56.2715 24.5733 57.1782 25.48 57.1782 26.76ZM49.8982 24.48C47.8715 24.48 45.5782 24.9067 43.0182 25.76C40.4582 26.6133 38.3115 27.5867 36.5782 28.68C34.8715 29.7733 34.0182 30.6533 34.0182 31.32C34.0182 32.0133 34.8315 32.36 36.4582 32.36C38.1115 32.36 39.9115 32.0933 41.8582 31.56C43.8315 31.0533 45.8848 30.2 48.0182 29C50.1782 27.7733 51.8315 26.36 52.9782 24.76C51.9648 24.5733 50.9382 24.48 49.8982 24.48ZM50.3382 4.55999C50.3382 4.63999 48.7782 7.35999 45.6582 12.72C42.5648 18.08 40.2848 21.9867 38.8182 24.44C38.6582 24.7867 38.3648 25.0533 37.9382 25.24C37.5115 25.4267 37.1782 25.52 36.9382 25.52C36.7248 25.52 36.6182 25.4667 36.6182 25.36C36.6182 25.2267 37.6048 23.5067 39.5782 20.2C41.5515 16.8667 43.5115 13.56 45.4582 10.28C47.4315 6.99999 48.3915 5.34666 48.3382 5.31999C48.4982 5.05333 48.7648 4.85333 49.1382 4.71999L50.1382 4.39999L50.3382 4.55999Z" fill="currentColor"/>
</svg>
