<svg width="248" height="34" viewBox="0 0 248 34" fill="none" xmlns="http://www.w3.org/2000/svg">
<path d="M35 33.28C34.2533 33.28 33.5067 33.1067 32.76 32.76C32.04 32.4133 31.36 31.9067 30.72 31.24C29.7867 30.28 28.9733 29.1333 28.28 27.8C27.6133 26.44 27.04 25.0533 26.56 23.64C26.08 22.2 25.7067 20.8933 25.44 19.72C25.1733 18.52 24.9867 17.6 24.88 16.96C23.8933 18.8533 22.8667 20.7333 21.8 22.6C20.76 24.44 19.4267 26.2533 17.8 28.04C16.2533 29.72 14.56 30.9867 12.72 31.84C10.88 32.72 8.97332 33.16 6.99999 33.16C6.38666 33.16 5.75999 33.12 5.11999 33.04C3.35999 32.8267 2.06666 32.32 1.23999 31.52C0.413324 30.72 -9.71556e-06 29.8667 -9.71556e-06 28.96C-9.71556e-06 27.9733 0.43999 27.08 1.31999 26.28C2.19999 25.48 3.45332 25.08 5.07999 25.08C5.61332 25.08 6.18666 25.1333 6.79999 25.24C7.41332 25.3467 8.05332 25.52 8.71999 25.76C9.01332 25.8667 9.15999 25.9867 9.15999 26.12C9.15999 26.2267 9.05332 26.28 8.83999 26.28C8.70666 26.28 8.59999 26.2667 8.51999 26.24C7.63999 25.92 6.85332 25.76 6.15999 25.76C5.03999 25.76 4.18666 26.0933 3.59999 26.76C3.01332 27.4 2.71999 28.1067 2.71999 28.88C2.71999 29.6267 3.03999 30.32 3.67999 30.96C4.31999 31.6 5.30666 31.92 6.63999 31.92C8.31999 31.92 9.86666 31.5333 11.28 30.76C12.6933 29.96 14.0133 28.88 15.24 27.52C16.4667 26.1333 17.64 24.5733 18.76 22.84C19.88 21.08 20.9733 19.2533 22.04 17.36C23.8267 14.1867 25.44 11.3067 26.88 8.72C28.3467 6.10666 29.8933 3.89333 31.52 2.08C30.8 2 30.0667 1.94666 29.32 1.92C28.5733 1.89333 27.8133 1.88 27.04 1.88C25.36 1.88 23.6133 1.97333 21.8 2.16C20.0133 2.32 18.28 2.58666 16.6 2.96C14.3333 3.44 12.3867 4.16 10.76 5.12C9.13332 6.05333 7.83999 7.10666 6.87999 8.28C5.94666 9.42666 5.35999 10.5867 5.11999 11.76C5.03999 12.1867 4.99999 12.6 4.99999 13C4.99999 14.36 5.45332 15.4133 6.35999 16.16C7.26666 16.9067 8.30666 17.28 9.47999 17.28C10.2267 17.28 10.9733 17.1333 11.72 16.84C12.4933 16.52 13.1867 16.0267 13.8 15.36C14.3067 14.8267 14.68 14.3333 14.92 13.88C15.16 13.4 15.2933 13.04 15.32 12.8C15.3467 12.4267 15.4267 12.24 15.56 12.24C15.64 12.24 15.7067 12.3067 15.76 12.44C15.84 12.5733 15.8667 12.7067 15.84 12.84C15.7333 13.4533 15.5467 14.0533 15.28 14.64C15.0133 15.2267 14.6933 15.72 14.32 16.12C13.5733 16.8933 12.72 17.4667 11.76 17.84C10.8 18.2133 9.87999 18.4 8.99999 18.4C7.95999 18.4 6.97332 18.1733 6.03999 17.72C5.13332 17.2667 4.39999 16.6133 3.83999 15.76C3.27999 14.88 2.99999 13.8 2.99999 12.52C2.99999 11.0267 3.51999 9.50666 4.55999 7.96C5.59999 6.38666 7.15999 5 9.23999 3.8C11.3467 2.6 13.96 1.77333 17.08 1.32C18.6533 1.10666 20.1733 0.946663 21.64 0.839996C23.1333 0.706663 24.5733 0.639997 25.96 0.639997C27.08 0.639997 28.1733 0.679997 29.24 0.759997C30.3067 0.839998 31.36 0.946665 32.4 1.08C33.0933 0.359998 33.56 -2.38419e-06 33.8 -2.38419e-06C33.9867 -2.38419e-06 34.08 0.146664 34.08 0.439997C34.08 0.546664 34.0667 0.679997 34.04 0.839996C34.0133 0.999997 33.9733 1.16 33.92 1.32C34.64 1.42666 35.3333 1.54666 36 1.68C36.6933 1.78666 37.3067 1.92 37.84 2.08C39.9467 2.66666 41.48 3.44 42.44 4.4C43.4267 5.33333 43.92 6.34666 43.92 7.44C43.92 8.61333 43.3867 9.78666 42.32 10.96C41.28 12.1333 39.8 13.1733 37.88 14.08C35.9867 14.9867 33.76 15.6533 31.2 16.08C30.3733 16.2133 29.64 16.3067 29 16.36C28.3867 16.4133 27.8533 16.4533 27.4 16.48C27.4533 16.7467 27.5733 17.3067 27.76 18.16C27.9467 19.0133 28.2133 20.0267 28.56 21.2C28.9067 22.3467 29.3467 23.56 29.88 24.84C30.44 26.12 31.1067 27.3333 31.88 28.48C32.4933 29.3867 33.12 30.1333 33.76 30.72C34.4 31.3067 35.08 31.6 35.8 31.6C36.2533 31.6 36.72 31.48 37.2 31.24C37.7067 31 38.2267 30.6133 38.76 30.08C39.4 29.44 39.9867 28.72 40.52 27.92C41.0533 27.12 41.5067 26.36 41.88 25.64C42.2533 24.8933 42.5333 24.3067 42.72 23.88C42.88 23.88 43 23.8933 43.08 23.92C43.16 23.9467 43.2 24.0533 43.2 24.24C43.0933 24.5067 42.9067 24.9333 42.64 25.52C42.3733 26.08 42.0533 26.72 41.68 27.44C41.3333 28.1333 40.9467 28.8267 40.52 29.52C40.0933 30.2133 39.6667 30.8 39.24 31.28C38.6267 31.9467 37.9333 32.44 37.16 32.76C36.4133 33.1067 35.6933 33.28 35 33.28ZM25.72 15.4C26.4933 15.2667 27.32 15.1733 28.2 15.12C29.08 15.0667 29.9467 14.9867 30.8 14.88C32.1867 14.6933 33.4933 14.3333 34.72 13.8C35.9467 13.24 37.0267 12.5733 37.96 11.8C38.92 11.0267 39.6667 10.2133 40.2 9.36C40.7333 8.48 41 7.64 41 6.84C41 5.02666 39.7867 3.77333 37.36 3.08C36.88 2.94666 36.2533 2.81333 35.48 2.68C34.7333 2.54666 34.0533 2.42666 33.44 2.32C32.16 4.50666 30.84 6.65333 29.48 8.76C28.1467 10.8667 26.8933 13.08 25.72 15.4ZM45.1328 31.6C44.0395 31.6 43.2261 31.2133 42.6928 30.44C42.1861 29.64 41.9328 28.68 41.9328 27.56C41.9328 26.52 42.1328 25.44 42.5328 24.32C42.9595 23.0933 43.5461 21.9733 44.2928 20.96C45.0661 19.9467 45.9061 19.1333 46.8128 18.52C47.7461 17.88 48.6661 17.56 49.5728 17.56C50.6661 17.56 51.4661 17.9467 51.9728 18.72C52.5061 19.4667 52.7728 20.4267 52.7728 21.6C52.7728 22.6133 52.5195 23.8 52.0128 25.16C51.9595 25.2933 51.9061 25.4267 51.8528 25.56C52.1728 25.64 52.4528 25.68 52.6928 25.68C53.4128 25.68 54.0528 25.4533 54.6128 25C55.1728 24.5467 55.6261 24.0267 55.9728 23.44C56.4261 22.32 56.9328 21.2133 57.4928 20.12C58.0795 19.0267 58.6128 18 59.0928 17.04C59.9728 15.36 60.8528 13.8 61.7328 12.36C62.6395 10.8933 63.4128 9.69333 64.0528 8.76C64.5328 8.04 64.9861 7.53333 65.4128 7.24C65.8395 6.92 66.2795 6.76 66.7328 6.76H66.9328C67.1728 6.76 67.4395 6.8 67.7328 6.88C68.0528 6.96 68.3461 6.97333 68.6128 6.92C68.2128 7.34666 67.5995 8.12 66.7728 9.24C65.9728 10.3333 65.0928 11.5867 64.1328 13C63.7328 13.5867 63.2261 14.3733 62.6128 15.36C62.0261 16.3467 61.3995 17.4533 60.7328 18.68C60.0661 19.9067 59.4395 21.16 58.8528 22.44C58.2928 23.6933 57.8261 24.92 57.4528 26.12C57.0795 27.2933 56.8928 28.3467 56.8928 29.28C56.8928 29.8933 56.9995 30.32 57.2128 30.56C57.4261 30.8 57.6928 30.92 58.0128 30.92C58.4128 30.92 58.8795 30.6933 59.4128 30.24C59.9728 29.76 60.5328 29.1467 61.0928 28.4C61.6795 27.6267 62.2128 26.7867 62.6928 25.88C63.1728 24.9467 63.5595 24.0133 63.8528 23.08C64.1728 22.12 64.3328 21.24 64.3328 20.44C64.3328 19.6667 64.1861 19.1067 63.8928 18.76C63.6261 18.4133 63.2661 18.24 62.8128 18.24C62.6261 18.24 62.4395 18.2933 62.2528 18.4C62.0661 18.48 61.9061 18.52 61.7728 18.52C61.6395 18.52 61.5728 18.4533 61.5728 18.32C61.5728 18.1867 61.7061 18.04 61.9728 17.88C62.2661 17.72 62.6928 17.64 63.2528 17.64C63.7595 17.64 64.2661 17.7733 64.7728 18.04C65.3061 18.3067 65.7461 18.7467 66.0928 19.36C66.4395 19.9467 66.6128 20.72 66.6128 21.68C66.6128 22.8267 66.3461 24 65.8128 25.2C65.2795 26.3733 64.5861 27.4667 63.7328 28.48C62.8795 29.4667 61.9328 30.2667 60.8928 30.88C59.8795 31.4933 58.8928 31.8 57.9328 31.8C56.8661 31.8 56.0928 31.48 55.6128 30.84C55.1595 30.2 54.9328 29.32 54.9328 28.2C54.9328 27.7467 54.9728 27.28 55.0528 26.8C55.1328 26.32 55.2395 25.8267 55.3728 25.32C55.0261 25.64 54.6261 25.9067 54.1728 26.12C53.7195 26.3333 53.2261 26.44 52.6928 26.44C52.4528 26.44 52.2395 26.4267 52.0528 26.4C51.8661 26.3733 51.6928 26.3333 51.5328 26.28C51.0795 27.1333 50.5195 27.9733 49.8528 28.8C49.1861 29.6 48.4395 30.2667 47.6128 30.8C46.8128 31.3333 45.9861 31.6 45.1328 31.6ZM45.6928 30.72C46.3061 30.72 46.9328 30.4533 47.5728 29.92C48.2395 29.3867 48.8528 28.7467 49.4128 28C49.9728 27.2533 50.3995 26.56 50.6928 25.92C50.2661 25.68 49.9461 25.3733 49.7328 25C49.5461 24.6 49.4528 24.2 49.4528 23.8C49.4528 23.4 49.5595 23.0533 49.7728 22.76C50.0128 22.44 50.3061 22.28 50.6528 22.28C51.0261 22.28 51.3461 22.44 51.6128 22.76C51.6661 22.4667 51.7061 22.2 51.7328 21.96C51.7595 21.6933 51.7728 21.44 51.7728 21.2C51.7728 20.5067 51.6395 19.9467 51.3728 19.52C51.1328 19.0667 50.7461 18.84 50.2128 18.84C49.6528 18.84 49.0661 19.08 48.4528 19.56C47.8395 20.04 47.2528 20.68 46.6928 21.48C46.1595 22.28 45.6928 23.1733 45.2928 24.16C44.9461 24.9867 44.6795 25.7733 44.4928 26.52C44.3061 27.24 44.2128 27.9067 44.2128 28.52C44.2128 29.1867 44.3328 29.72 44.5728 30.12C44.8128 30.52 45.1861 30.72 45.6928 30.72ZM71.4722 31.76C70.4855 31.76 69.5922 31.44 68.7922 30.8C68.0188 30.16 67.6322 29.1867 67.6322 27.88C67.6322 26.7867 67.8722 25.6267 68.3522 24.4C68.8588 23.1733 69.5122 22.0267 70.3122 20.96C71.1388 19.8667 72.0455 18.9867 73.0322 18.32C74.0455 17.6267 75.0588 17.28 76.0722 17.28C76.5788 17.28 77.0722 17.4267 77.5522 17.72C78.0322 18.0133 78.2722 18.52 78.2722 19.24C78.2722 19.9067 78.0188 20.64 77.5122 21.44C77.0055 22.24 76.2855 22.9867 75.3522 23.68C74.9522 23.9733 74.4455 24.2533 73.8322 24.52C73.2188 24.7867 72.6055 25.0133 71.9922 25.2C71.3788 25.36 70.8722 25.44 70.4722 25.44C70.3388 25.76 70.2055 26.1867 70.0722 26.72C69.9655 27.2533 69.9122 27.8 69.9122 28.36C69.9122 29.0267 70.0455 29.6267 70.3122 30.16C70.5788 30.6933 71.0722 30.96 71.7922 30.96C72.6722 30.96 73.4855 30.7067 74.2322 30.2C75.0055 29.6933 75.6855 29.0533 76.2722 28.28C76.8855 27.5067 77.4055 26.72 77.8322 25.92C78.2588 25.12 78.5922 24.44 78.8322 23.88C79.1522 23.88 79.3122 24 79.3122 24.24C78.9655 24.9867 78.5655 25.8 78.1122 26.68C77.6855 27.56 77.1655 28.3867 76.5522 29.16C75.9655 29.9067 75.2455 30.5333 74.3922 31.04C73.5655 31.52 72.5922 31.76 71.4722 31.76ZM70.7522 24.72C71.1255 24.72 71.7522 24.5867 72.6322 24.32C73.5122 24.0267 74.3122 23.5733 75.0322 22.96C75.7255 22.3467 76.2588 21.68 76.6322 20.96C77.0055 20.2133 77.1922 19.5867 77.1922 19.08C77.1922 18.4933 76.9788 18.2 76.5522 18.2C76.2322 18.2 75.7922 18.4133 75.2322 18.84C74.6722 19.2667 73.9788 19.9867 73.1522 21C72.6455 21.64 72.1655 22.3333 71.7122 23.08C71.2588 23.8267 70.9388 24.3733 70.7522 24.72ZM78.8666 23.76C79.0799 23.3067 79.3599 22.5867 79.7066 21.6C80.0532 20.5867 80.4132 19.4667 80.7866 18.24C81.1599 17.0133 81.4399 15.8533 81.6266 14.76C81.7066 14.3333 81.8532 14.0267 82.0666 13.84C82.2799 13.6267 82.5066 13.52 82.7466 13.52C83.0932 13.52 83.4132 13.6933 83.7066 14.04C83.9999 14.36 84.1466 14.8267 84.1466 15.44C84.1466 16.1867 83.9199 16.8267 83.4666 17.36C83.0399 17.8933 82.5066 18.4 81.8666 18.88C82.1332 18.9067 82.4132 18.9333 82.7066 18.96C82.9999 18.96 83.3199 18.96 83.6666 18.96C84.9199 18.96 86.1599 18.88 87.3866 18.72C87.4399 18.88 87.4666 19 87.4666 19.08C87.4666 19.4267 87.3599 19.8667 87.1466 20.4C86.9599 20.9333 86.7599 21.4133 86.5466 21.84C86.4399 22.08 86.2266 22.52 85.9066 23.16C85.5866 23.7733 85.2399 24.48 84.8666 25.28C84.4932 26.0533 84.1732 26.8267 83.9066 27.6C83.6666 28.3467 83.5466 28.9867 83.5466 29.52C83.5466 30.2133 83.8132 30.56 84.3466 30.56C84.8532 30.56 85.5599 29.9733 86.4666 28.8C87.3732 27.6 88.2799 25.96 89.1866 23.88C89.5066 23.88 89.6666 24 89.6666 24.24C89.3732 24.96 88.9999 25.7467 88.5466 26.6C88.1199 27.4533 87.6399 28.2667 87.1066 29.04C86.5732 29.7867 85.9999 30.4133 85.3866 30.92C84.7732 31.4 84.1332 31.64 83.4666 31.64C82.9599 31.64 82.4532 31.44 81.9466 31.04C81.4399 30.6133 81.1866 29.9333 81.1866 29C81.1866 28.1733 81.3466 27.3733 81.6666 26.6C81.9866 25.8 82.3466 25.0533 82.7466 24.36C83.1466 23.6667 83.5066 23.0533 83.8266 22.52C84.1466 21.9867 84.3066 21.56 84.3066 21.24C84.3066 20.76 83.9999 20.4133 83.3866 20.2C82.7999 19.9867 82.0266 19.8667 81.0666 19.84C80.5866 21.0667 80.2266 21.9733 79.9866 22.56C79.7466 23.1467 79.5199 23.7067 79.3066 24.24C78.8799 24.24 78.7332 24.08 78.8666 23.76ZM97.4581 10.48C97.1114 10.9867 96.7248 11.6267 96.2981 12.4C95.8714 13.1733 95.4714 13.92 95.0981 14.64C94.7514 15.36 94.4848 15.9067 94.2981 16.28H97.9781C97.9781 16.3867 97.9248 16.56 97.8181 16.8C97.7381 17.04 97.5648 17.2133 97.2981 17.32H93.8181C93.4981 18.04 93.1248 18.9067 92.6981 19.92C92.2981 20.9333 91.8981 21.9867 91.4981 23.08C91.1248 24.1733 90.8048 25.2 90.5381 26.16C90.2981 27.0933 90.1781 27.8533 90.1781 28.44C90.1781 29.24 90.2848 29.84 90.4981 30.24C90.7114 30.6133 91.0981 30.8 91.6581 30.8C92.3781 30.8 93.0714 30.4533 93.7381 29.76C94.4048 29.04 95.0314 28.1467 95.6181 27.08C96.2314 26.0133 96.7648 24.9467 97.2181 23.88C97.5381 23.88 97.6981 24 97.6981 24.24C97.4048 24.96 97.0448 25.7467 96.6181 26.6C96.1914 27.4533 95.6981 28.28 95.1381 29.08C94.6048 29.8533 93.9914 30.4933 93.2981 31C92.6314 31.48 91.8848 31.72 91.0581 31.72C89.9381 31.72 89.1781 31.4133 88.7781 30.8C88.3781 30.16 88.1781 29.3467 88.1781 28.36C88.1781 27.64 88.3114 26.7733 88.5781 25.76C88.8448 24.72 89.1648 23.6533 89.5381 22.56C89.9381 21.4667 90.3248 20.4533 90.6981 19.52C91.0714 18.56 91.3648 17.8267 91.5781 17.32H89.0181C89.0181 17.1067 89.1114 16.88 89.2981 16.64C89.4848 16.4 89.6848 16.28 89.8981 16.28H92.0181C92.2314 15.8533 92.4714 15.32 92.7381 14.68C93.0314 14.04 93.4181 13.3333 93.8981 12.56C94.2981 11.92 94.8048 11.4133 95.4181 11.04C96.0581 10.6667 96.7381 10.48 97.4581 10.48ZM108.821 33.16C108.234 33.16 107.554 33.0933 106.781 32.96C106.034 32.8533 105.301 32.6533 104.581 32.36C103.888 32.0667 103.301 31.6533 102.821 31.12C102.368 30.56 102.141 29.8667 102.141 29.04C102.141 28.0533 102.581 27.16 103.461 26.36C104.341 25.5333 105.581 25.12 107.181 25.12C108.354 25.12 109.448 25.32 110.461 25.72C111.474 26.0933 112.461 26.56 113.421 27.12C114.408 27.6533 115.421 28.1867 116.461 28.72C117.794 27.44 119.008 25.8533 120.101 23.96C121.221 22.0667 122.328 20.04 123.421 17.88C124.541 15.6933 125.741 13.5067 127.021 11.32C128.328 9.13333 129.834 7.08 131.541 5.16L133.861 2.56C132.874 2.4 131.848 2.28 130.781 2.2C129.714 2.09333 128.608 2.04 127.461 2.04C125.888 2.04 124.168 2.17333 122.301 2.44C120.461 2.70666 118.621 3.12 116.781 3.68C114.968 4.24 113.301 4.94666 111.781 5.8C110.288 6.65333 109.088 7.66666 108.181 8.84C107.274 10.0133 106.821 11.36 106.821 12.88C106.821 13.92 107.048 14.7467 107.501 15.36C107.981 15.9733 108.568 16.4267 109.261 16.72C109.981 16.9867 110.701 17.12 111.421 17.12C112.621 17.12 113.634 16.8533 114.461 16.32C115.288 15.76 115.901 15.12 116.301 14.4C116.728 13.68 116.941 13.04 116.941 12.48C116.941 12.2933 117.074 12.2 117.341 12.2C117.608 12.2 117.741 12.4133 117.741 12.84C117.741 13.9333 117.408 14.88 116.741 15.68C116.074 16.48 115.234 17.0933 114.221 17.52C113.234 17.9467 112.234 18.16 111.221 18.16C110.288 18.16 109.328 17.9333 108.341 17.48C107.381 17.0267 106.581 16.3467 105.941 15.44C105.301 14.5333 104.981 13.4133 104.981 12.08C104.981 10.48 105.434 9.06666 106.341 7.84C107.248 6.58666 108.461 5.52 109.981 4.64C111.501 3.76 113.194 3.04 115.061 2.48C116.928 1.89333 118.808 1.46666 120.701 1.2C122.621 0.93333 124.421 0.799997 126.101 0.799997C127.648 0.799997 129.154 0.879997 130.621 1.04C132.114 1.17333 133.514 1.38666 134.821 1.68C135.194 1.36 135.568 1.08 135.941 0.839996C136.341 0.599996 136.701 0.41333 137.021 0.279996C137.314 0.146663 137.554 0.0799966 137.741 0.0799966C137.954 0.0799966 138.061 0.159996 138.061 0.319996C138.061 0.399996 137.914 0.546664 137.621 0.759997C137.274 1.02666 136.968 1.28 136.701 1.52C136.461 1.73333 136.314 1.89333 136.261 2C138.981 2.69333 141.181 3.65333 142.861 4.88C144.568 6.08 145.421 7.50666 145.421 9.16C145.421 10.52 144.954 11.72 144.021 12.76C143.088 13.7733 141.861 14.5733 140.341 15.16C138.848 15.7467 137.248 16.08 135.541 16.16C137.941 16.9333 139.848 17.9333 141.261 19.16C142.701 20.3867 143.421 21.9467 143.421 23.84C143.421 25.2533 143.008 26.5333 142.181 27.68C141.381 28.8267 140.301 29.8133 138.941 30.64C137.608 31.44 136.141 32.0533 134.541 32.48C132.941 32.9333 131.354 33.16 129.781 33.16C127.301 33.16 125.101 32.9067 123.181 32.4C121.288 31.8933 119.314 31.1733 117.261 30.24C114.674 32.1867 111.861 33.16 108.821 33.16ZM129.221 32C130.874 32 132.381 31.7467 133.741 31.24C135.101 30.7333 136.274 30.0667 137.261 29.24C138.274 28.4133 139.048 27.4933 139.581 26.48C140.141 25.4667 140.421 24.4667 140.421 23.48C140.421 22.5467 140.141 21.6533 139.581 20.8C139.021 19.92 138.141 19.1867 136.941 18.6C135.394 17.8267 134.034 17.2933 132.861 17C131.688 16.68 130.754 16.3867 130.061 16.12C129.794 15.9867 129.621 15.8933 129.541 15.84C129.461 15.7867 129.421 15.7333 129.421 15.68C129.421 15.4133 129.554 15.2 129.821 15.04C130.088 14.88 130.394 14.8 130.741 14.8C131.274 14.8 131.848 14.84 132.461 14.92C133.074 15 133.728 15.04 134.421 15.04C136.154 15.04 137.648 14.6933 138.901 14C140.154 13.3067 141.114 12.44 141.781 11.4C142.474 10.36 142.821 9.33333 142.821 8.32C142.821 7.17333 142.314 6.17333 141.301 5.32C140.288 4.44 138.448 3.65333 135.781 2.96C134.448 4.8 133.114 6.86666 131.781 9.16C130.448 11.4267 129.114 13.7333 127.781 16.08C126.448 18.4 125.101 20.6 123.741 22.68C122.381 24.76 121.021 26.5467 119.661 28.04C119.341 28.3867 119.088 28.6533 118.901 28.84C118.714 29 118.461 29.2267 118.141 29.52C119.741 30.1867 121.501 30.7733 123.421 31.28C125.341 31.76 127.274 32 129.221 32ZM108.021 31.92C109.514 32 110.874 31.8267 112.101 31.4C113.354 30.9467 114.514 30.32 115.581 29.52C114.941 29.2 114.128 28.7867 113.141 28.28C112.154 27.7733 111.154 27.3333 110.141 26.96C109.128 26.56 108.248 26.36 107.501 26.36C106.514 26.36 105.768 26.6267 105.261 27.16C104.754 27.6667 104.501 28.2533 104.501 28.92C104.501 29.6133 104.794 30.28 105.381 30.92C105.968 31.5333 106.848 31.8667 108.021 31.92ZM147.798 31.6C146.811 31.6 146.118 31.32 145.718 30.76C145.318 30.1733 145.118 29.5067 145.118 28.76C145.118 28.36 145.158 27.96 145.238 27.56C145.345 27.1333 145.465 26.7467 145.598 26.4L148.278 19.56C148.358 19.3467 148.398 19.16 148.398 19C148.398 18.7333 148.331 18.5067 148.198 18.32C148.065 18.1067 147.971 17.96 147.918 17.88L150.118 17.8C150.518 17.7733 150.798 17.8267 150.958 17.96C151.145 18.0667 151.238 18.2 151.238 18.36C151.238 18.52 151.145 18.8133 150.958 19.24C150.691 19.88 150.331 20.68 149.878 21.64C149.425 22.6 148.971 23.5867 148.518 24.6C148.091 25.6133 147.718 26.56 147.398 27.44C147.105 28.32 146.958 29 146.958 29.48C146.958 29.8267 147.038 30.12 147.198 30.36C147.385 30.6 147.691 30.72 148.118 30.72C148.678 30.72 149.225 30.5067 149.758 30.08C150.318 29.6267 150.838 29.0533 151.318 28.36C151.798 27.6667 152.238 26.92 152.638 26.12C153.065 25.32 153.425 24.5733 153.718 23.88C154.038 23.88 154.198 24 154.198 24.24C153.931 24.9067 153.585 25.6667 153.158 26.52C152.731 27.3733 152.238 28.1867 151.678 28.96C151.145 29.7067 150.545 30.3333 149.878 30.84C149.238 31.3467 148.545 31.6 147.798 31.6ZM151.358 15.32C151.011 15.32 150.705 15.1867 150.438 14.92C150.198 14.6533 150.078 14.3333 150.078 13.96C150.078 13.5067 150.265 13.1067 150.638 12.76C151.011 12.3867 151.425 12.2 151.878 12.2C152.251 12.2 152.571 12.32 152.838 12.56C153.105 12.8 153.238 13.1067 153.238 13.48C153.238 13.96 153.051 14.3867 152.678 14.76C152.305 15.1333 151.865 15.32 151.358 15.32ZM149.869 31.92C150.829 29.9733 151.749 28.0533 152.629 26.16C153.509 24.24 154.416 22.4133 155.349 20.68C155.883 19.72 156.336 19.0533 156.709 18.68C157.083 18.28 157.576 18.08 158.189 18.08C158.403 18.08 158.629 18.12 158.869 18.2C159.109 18.2533 159.349 18.28 159.589 18.28C159.749 18.28 159.869 18.2667 159.949 18.24C159.576 18.4533 159.083 18.9867 158.469 19.84C157.883 20.6667 157.283 21.6267 156.669 22.72C156.056 23.8133 155.509 24.84 155.029 25.8C155.536 25.1867 156.069 24.5733 156.629 23.96C157.189 23.3467 157.803 22.76 158.469 22.2C159.109 21.64 159.869 21.0667 160.749 20.48C161.656 19.8667 162.536 19.36 163.389 18.96C164.243 18.56 164.923 18.36 165.429 18.36C165.616 18.36 165.749 18.3733 165.829 18.4C165.829 18.4 165.683 18.6667 165.389 19.2C165.096 19.7067 164.723 20.3867 164.269 21.24C163.843 22.0667 163.403 22.96 162.949 23.92C162.496 24.8533 162.083 25.76 161.709 26.64C161.363 27.4933 161.136 28.2133 161.029 28.8C160.949 29.1467 160.909 29.4667 160.909 29.76C160.909 30.1867 160.989 30.4667 161.149 30.6C161.309 30.7333 161.483 30.8 161.669 30.8C162.176 30.8 162.696 30.5733 163.229 30.12C163.763 29.6667 164.269 29.0933 164.749 28.4C165.256 27.68 165.723 26.92 166.149 26.12C166.576 25.32 166.936 24.5733 167.229 23.88C167.549 23.88 167.709 24 167.709 24.24C167.416 24.96 167.043 25.76 166.589 26.64C166.163 27.4933 165.669 28.3067 165.109 29.08C164.576 29.8533 163.976 30.4933 163.309 31C162.643 31.5067 161.923 31.76 161.149 31.76C160.616 31.76 160.056 31.5733 159.469 31.2C158.909 30.8267 158.629 30.1333 158.629 29.12C158.629 28.8267 158.656 28.52 158.709 28.2C158.763 27.8533 158.856 27.48 158.989 27.08C159.203 26.5467 159.456 25.9733 159.749 25.36C160.043 24.7467 160.523 23.9067 161.189 22.84C161.376 22.5467 161.483 22.32 161.509 22.16C161.563 22 161.589 21.8667 161.589 21.76C161.589 21.44 161.443 21.28 161.149 21.28C160.909 21.28 160.549 21.4133 160.069 21.68C159.616 21.9467 159.043 22.4133 158.349 23.08C157.683 23.72 156.883 24.6267 155.949 25.8C155.043 26.9733 153.989 28.7067 152.789 31C152.603 31.3467 152.389 31.5333 152.149 31.56C151.936 31.5867 151.629 31.6133 151.229 31.64C150.963 31.6667 150.709 31.68 150.469 31.68C150.229 31.7067 150.029 31.7867 149.869 31.92ZM174.185 31.88C173.438 31.8 172.825 31.52 172.345 31.04C171.865 30.5333 171.518 29.9467 171.305 29.28C171.092 28.6133 170.985 28 170.985 27.44C170.985 26.3733 171.225 25.52 171.705 24.88C172.185 24.2133 172.625 23.8667 173.025 23.84C173.452 23.8667 173.972 23.7733 174.585 23.56C175.198 23.32 175.732 23 176.185 22.6C176.958 21.9867 177.345 21.36 177.345 20.72C177.345 20.0533 176.958 19.72 176.185 19.72C175.758 19.72 175.212 19.8667 174.545 20.16C173.905 20.4533 173.158 20.96 172.305 21.68C171.238 22.5867 170.132 23.8 168.985 25.32C168.825 25.6667 168.638 26.1867 168.425 26.88C168.212 27.5467 168.025 28.24 167.865 28.96C167.732 29.68 167.665 30.2933 167.665 30.8C167.665 31.2 167.732 31.4667 167.865 31.6H165.345C165.052 31.6 164.905 31.48 164.905 31.24C164.905 31.16 164.918 31.0933 164.945 31.04C164.972 30.9867 164.998 30.88 165.025 30.72C165.398 29.3333 165.838 28.1067 166.345 27.04C166.878 25.9733 167.318 25.04 167.665 24.24C167.425 24.32 167.292 24.3067 167.265 24.2C167.238 24.0667 167.225 23.96 167.225 23.88C167.412 23.4533 167.718 22.7733 168.145 21.84C168.598 20.88 169.118 19.7867 169.705 18.56C170.318 17.3067 170.972 16 171.665 14.64C172.358 13.28 173.052 11.9733 173.745 10.72C174.438 9.44 174.998 8.53333 175.425 8C175.878 7.46666 176.425 7.2 177.065 7.2C177.305 7.2 177.585 7.24 177.905 7.32C178.252 7.4 178.558 7.41333 178.825 7.36C178.238 7.86666 177.505 8.8 176.625 10.16C175.745 11.4933 174.812 13.0533 173.825 14.84C172.838 16.6267 171.892 18.4533 170.985 20.32C170.718 20.8533 170.465 21.4133 170.225 22C169.985 22.5867 169.758 23.1733 169.545 23.76C170.105 23.0667 170.745 22.3467 171.465 21.6C172.185 20.8533 172.932 20.1733 173.705 19.56C174.505 18.92 175.292 18.4533 176.065 18.16C176.945 17.84 177.678 17.68 178.265 17.68C178.878 17.68 179.318 17.8267 179.585 18.12C179.878 18.4133 180.025 18.7867 180.025 19.24C180.025 19.7467 179.825 20.36 179.425 21.08C179.025 21.7733 178.478 22.3733 177.785 22.88C177.198 23.28 176.585 23.6267 175.945 23.92C175.305 24.2133 174.545 24.4 173.665 24.48C173.505 24.8533 173.385 25.24 173.305 25.64C173.252 26.0133 173.225 26.3867 173.225 26.76C173.225 27.8 173.465 28.72 173.945 29.52C174.425 30.2933 175.052 30.68 175.825 30.68C176.198 30.68 176.598 30.5733 177.025 30.36C177.478 30.1467 177.945 29.7867 178.425 29.28C178.958 28.7467 179.492 28.0133 180.025 27.08C180.558 26.12 181.092 25.0533 181.625 23.88C181.945 23.88 182.105 24 182.105 24.24C181.145 26.56 180.212 28.28 179.305 29.4C178.398 30.52 177.518 31.24 176.665 31.56C175.838 31.8533 175.012 31.96 174.185 31.88ZM184.039 31.6C182.946 31.6 182.132 31.2133 181.599 30.44C181.092 29.64 180.839 28.68 180.839 27.56C180.839 26.52 181.039 25.44 181.439 24.32C181.866 23.0933 182.452 21.9733 183.199 20.96C183.972 19.9467 184.812 19.1333 185.719 18.52C186.652 17.88 187.572 17.56 188.479 17.56C189.572 17.56 190.372 17.9333 190.879 18.68C191.412 19.4267 191.679 20.3733 191.679 21.52C191.679 22.32 191.546 23.16 191.279 24.04C191.012 24.92 190.652 25.7867 190.199 26.64C190.546 26.9867 191.039 27.16 191.679 27.16C192.426 27.16 193.066 26.92 193.599 26.44C194.132 25.96 194.652 25.1067 195.159 23.88C195.479 23.88 195.639 24 195.639 24.24C195.132 25.4667 194.546 26.3733 193.879 26.96C193.239 27.52 192.412 27.7867 191.399 27.76C190.786 27.76 190.279 27.5867 189.879 27.24C189.132 28.4667 188.239 29.5067 187.199 30.36C186.186 31.1867 185.132 31.6 184.039 31.6ZM184.599 30.72C185.212 30.72 185.826 30.4667 186.439 29.96C187.052 29.4267 187.612 28.8267 188.119 28.16C188.626 27.4933 188.986 26.92 189.199 26.44C188.772 25.6667 188.519 25.0933 188.439 24.72C188.386 24.32 188.359 24.0267 188.359 23.84C188.359 23.3333 188.492 22.9467 188.759 22.68C189.026 22.4133 189.292 22.28 189.559 22.28C189.932 22.28 190.252 22.44 190.519 22.76C190.572 22.4667 190.612 22.2 190.639 21.96C190.666 21.6933 190.679 21.44 190.679 21.2C190.679 20.5067 190.546 19.9467 190.279 19.52C190.039 19.0667 189.652 18.84 189.119 18.84C188.559 18.84 187.972 19.08 187.359 19.56C186.746 20.04 186.159 20.68 185.599 21.48C185.066 22.28 184.599 23.1733 184.199 24.16C183.852 24.9867 183.586 25.7733 183.399 26.52C183.212 27.24 183.119 27.9067 183.119 28.52C183.119 29.1867 183.239 29.72 183.479 30.12C183.719 30.52 184.092 30.72 184.599 30.72ZM203.955 31.68C203.795 31.68 203.648 31.6667 203.515 31.64C203.408 31.64 203.261 31.6267 203.075 31.6C202.408 31.4667 201.941 31.1067 201.675 30.52C201.435 29.9067 201.315 29.2533 201.315 28.56C201.315 28.1333 201.341 27.72 201.395 27.32C201.475 26.8933 201.568 26.52 201.675 26.2C201.435 26.6267 201.128 27.1467 200.755 27.76C200.381 28.3467 199.955 28.9333 199.475 29.52C198.995 30.1067 198.488 30.6 197.955 31C197.421 31.4 196.875 31.6 196.315 31.6C195.755 31.6 195.235 31.44 194.755 31.12C194.275 30.8 193.968 30.3467 193.835 29.76C193.808 29.6267 193.781 29.5067 193.755 29.4C193.755 29.2667 193.755 29.1467 193.755 29.04C193.755 28.3467 193.941 27.64 194.315 26.92C194.688 26.2 195.128 25.3067 195.635 24.24C195.501 24.24 195.381 24.2267 195.275 24.2C195.195 24.1733 195.155 24.0667 195.155 23.88C195.768 22.4933 196.288 21.3733 196.715 20.52C197.168 19.64 197.501 19.0133 197.715 18.64C198.061 18.0533 198.608 17.76 199.355 17.76H201.835C201.381 18.1067 200.968 18.4933 200.595 18.92C200.248 19.32 199.808 20.0667 199.275 21.16C199.275 21.16 199.181 21.3467 198.995 21.72C198.808 22.0933 198.568 22.56 198.275 23.12C198.008 23.68 197.728 24.2533 197.435 24.84C197.168 25.4267 196.941 25.9333 196.755 26.36C196.488 26.9467 196.288 27.4933 196.155 28C196.021 28.5067 195.955 28.9467 195.955 29.32C195.955 30.2533 196.261 30.72 196.875 30.72C197.301 30.72 197.781 30.4533 198.315 29.92C198.928 29.3333 199.555 28.52 200.195 27.48C200.861 26.4133 201.501 25.2933 202.115 24.12C202.728 22.9467 203.275 21.8667 203.755 20.88C204.235 19.8667 204.595 19.12 204.835 18.64C204.968 18.3467 205.141 18.1333 205.355 18C205.595 17.84 205.928 17.76 206.355 17.76H208.795C208.635 17.92 208.395 18.0933 208.075 18.28C207.781 18.4667 207.488 18.8 207.195 19.28C206.821 19.92 206.488 20.52 206.195 21.08C205.901 21.6133 205.501 22.4267 204.995 23.52C204.888 23.76 204.675 24.2267 204.355 24.92C204.061 25.6133 203.781 26.3733 203.515 27.2C203.248 28.0267 203.115 28.7733 203.115 29.44C203.115 29.8667 203.208 30.2133 203.395 30.48C203.581 30.7467 203.888 30.88 204.315 30.88C205.061 30.88 205.768 30.5733 206.435 29.96C207.128 29.3467 207.741 28.6 208.275 27.72C208.835 26.84 209.288 25.9867 209.635 25.16C209.608 24.9467 209.568 24.64 209.515 24.24C209.488 23.8133 209.475 23.4533 209.475 23.16C209.475 21.4267 209.741 19.96 210.275 18.76C210.835 17.5333 211.568 16.92 212.475 16.92C212.981 16.92 213.235 17.1467 213.235 17.6C213.235 17.68 213.141 18 212.955 18.56C212.795 19.0933 212.568 19.76 212.275 20.56C212.008 21.36 211.701 22.2 211.355 23.08C211.008 23.96 210.661 24.7867 210.315 25.56C210.395 26.0133 210.581 26.3867 210.875 26.68C211.168 26.9733 211.541 27.12 211.995 27.12C212.528 27.12 213.021 26.88 213.475 26.4C213.955 25.8933 214.448 25.0533 214.955 23.88C215.275 23.88 215.435 24 215.435 24.24C215.008 25.3067 214.488 26.16 213.875 26.8C213.288 27.44 212.621 27.76 211.875 27.76C210.968 27.76 210.315 27.2933 209.915 26.36C209.195 27.8 208.328 29.0533 207.315 30.12C206.328 31.16 205.208 31.68 203.955 31.68ZM215.799 31.76C214.706 31.76 213.813 31.4267 213.119 30.76C212.453 30.0667 212.119 29.3467 212.119 28.6C212.119 27.9867 212.279 27.4267 212.599 26.92C212.893 26.3867 213.293 26.12 213.799 26.12L213.839 26.04C214.426 24.9733 214.986 23.8933 215.519 22.8C216.079 21.68 216.693 20.4933 217.359 19.24C217.919 18.2 218.519 17.3467 219.159 16.68C219.826 16.0133 220.599 15.68 221.479 15.68C221.693 15.68 221.986 15.7333 222.359 15.84C222.733 15.92 222.919 16.1067 222.919 16.4C222.919 16.6133 222.799 16.72 222.559 16.72C222.373 16.72 222.159 16.6667 221.919 16.56C221.706 16.4533 221.533 16.4 221.399 16.4C220.893 16.4 220.466 16.6933 220.119 17.28C219.773 17.8667 219.599 18.4933 219.599 19.16C219.599 19.88 219.719 20.5333 219.959 21.12C220.199 21.68 220.479 22.2267 220.799 22.76C221.119 23.2933 221.399 23.84 221.639 24.4C221.879 24.9333 221.999 25.52 221.999 26.16C221.999 27.44 221.746 28.48 221.239 29.28C220.759 30.0533 220.119 30.64 219.319 31.04H219.359C220.773 31.04 221.933 30.3867 222.839 29.08C223.773 27.7467 224.693 26.0133 225.599 23.88C225.919 23.88 226.079 24 226.079 24.24C225.573 25.44 225.013 26.6133 224.399 27.76C223.786 28.9067 223.066 29.8533 222.239 30.6C221.413 31.3467 220.399 31.72 219.199 31.72C218.693 31.72 218.226 31.6667 217.799 31.56C217.186 31.6933 216.519 31.76 215.799 31.76ZM215.199 27.52C215.199 28.16 215.346 28.7733 215.639 29.36C215.933 29.9467 216.466 30.3867 217.239 30.68C217.933 30.28 218.466 29.6667 218.839 28.84C219.239 27.9867 219.439 27.1067 219.439 26.2C219.439 25.4533 219.359 24.6933 219.199 23.92C219.039 23.1467 218.866 22.3867 218.679 21.64C218.519 20.8933 218.439 20.2267 218.439 19.64C218.439 19.4533 218.439 19.2933 218.439 19.16C218.466 19 218.493 18.8533 218.519 18.72C218.039 19.44 217.546 20.28 217.039 21.24C216.559 22.2 216.093 23.12 215.639 24C215.186 24.88 214.773 25.6 214.399 26.16C214.933 26.24 215.199 26.6933 215.199 27.52ZM213.879 29.52C213.879 29.9467 214.026 30.32 214.319 30.64C214.613 30.96 215.053 31.12 215.639 31.12C215.906 31.12 216.159 31.0933 216.399 31.04C215.839 30.6933 215.386 30.2533 215.039 29.72C214.719 29.1867 214.559 28.5733 214.559 27.88C214.319 28.1467 214.146 28.4267 214.039 28.72C213.933 28.9867 213.879 29.2533 213.879 29.52ZM232.583 31.88C231.837 31.8 231.223 31.52 230.743 31.04C230.263 30.5333 229.917 29.9467 229.703 29.28C229.49 28.6133 229.383 28 229.383 27.44C229.383 26.3733 229.623 25.52 230.103 24.88C230.583 24.2133 231.023 23.8667 231.423 23.84C231.85 23.8667 232.37 23.7733 232.983 23.56C233.597 23.32 234.13 23 234.583 22.6C235.357 21.9867 235.743 21.36 235.743 20.72C235.743 20.0533 235.357 19.72 234.583 19.72C234.157 19.72 233.61 19.8667 232.943 20.16C232.303 20.4533 231.557 20.96 230.703 21.68C229.637 22.5867 228.53 23.8 227.383 25.32C227.223 25.6667 227.037 26.1867 226.823 26.88C226.61 27.5467 226.423 28.24 226.263 28.96C226.13 29.68 226.063 30.2933 226.063 30.8C226.063 31.2 226.13 31.4667 226.263 31.6H223.743C223.45 31.6 223.303 31.48 223.303 31.24C223.303 31.16 223.317 31.0933 223.343 31.04C223.37 30.9867 223.397 30.88 223.423 30.72C223.797 29.3333 224.237 28.1067 224.743 27.04C225.277 25.9733 225.717 25.04 226.063 24.24C225.823 24.32 225.69 24.3067 225.663 24.2C225.637 24.0667 225.623 23.96 225.623 23.88C225.81 23.4533 226.117 22.7733 226.543 21.84C226.997 20.88 227.517 19.7867 228.103 18.56C228.717 17.3067 229.37 16 230.063 14.64C230.757 13.28 231.45 11.9733 232.143 10.72C232.837 9.44 233.397 8.53333 233.823 8C234.277 7.46666 234.823 7.2 235.463 7.2C235.703 7.2 235.983 7.24 236.303 7.32C236.65 7.4 236.957 7.41333 237.223 7.36C236.637 7.86666 235.903 8.8 235.023 10.16C234.143 11.4933 233.21 13.0533 232.223 14.84C231.237 16.6267 230.29 18.4533 229.383 20.32C229.117 20.8533 228.863 21.4133 228.623 22C228.383 22.5867 228.157 23.1733 227.943 23.76C228.503 23.0667 229.143 22.3467 229.863 21.6C230.583 20.8533 231.33 20.1733 232.103 19.56C232.903 18.92 233.69 18.4533 234.463 18.16C235.343 17.84 236.077 17.68 236.663 17.68C237.277 17.68 237.717 17.8267 237.983 18.12C238.277 18.4133 238.423 18.7867 238.423 19.24C238.423 19.7467 238.223 20.36 237.823 21.08C237.423 21.7733 236.877 22.3733 236.183 22.88C235.597 23.28 234.983 23.6267 234.343 23.92C233.703 24.2133 232.943 24.4 232.063 24.48C231.903 24.8533 231.783 25.24 231.703 25.64C231.65 26.0133 231.623 26.3867 231.623 26.76C231.623 27.8 231.863 28.72 232.343 29.52C232.823 30.2933 233.45 30.68 234.223 30.68C234.597 30.68 234.997 30.5733 235.423 30.36C235.877 30.1467 236.343 29.7867 236.823 29.28C237.357 28.7467 237.89 28.0133 238.423 27.08C238.957 26.12 239.49 25.0533 240.023 23.88C240.343 23.88 240.503 24 240.503 24.24C239.543 26.56 238.61 28.28 237.703 29.4C236.797 30.52 235.917 31.24 235.063 31.56C234.237 31.8533 233.41 31.96 232.583 31.88ZM241.157 31.6C240.171 31.6 239.477 31.32 239.077 30.76C238.677 30.1733 238.477 29.5067 238.477 28.76C238.477 28.36 238.517 27.96 238.597 27.56C238.704 27.1333 238.824 26.7467 238.957 26.4L241.637 19.56C241.717 19.3467 241.757 19.16 241.757 19C241.757 18.7333 241.691 18.5067 241.557 18.32C241.424 18.1067 241.331 17.96 241.277 17.88L243.477 17.8C243.877 17.7733 244.157 17.8267 244.317 17.96C244.504 18.0667 244.597 18.2 244.597 18.36C244.597 18.52 244.504 18.8133 244.317 19.24C244.051 19.88 243.691 20.68 243.237 21.64C242.784 22.6 242.331 23.5867 241.877 24.6C241.451 25.6133 241.077 26.56 240.757 27.44C240.464 28.32 240.317 29 240.317 29.48C240.317 29.8267 240.397 30.12 240.557 30.36C240.744 30.6 241.051 30.72 241.477 30.72C242.037 30.72 242.584 30.5067 243.117 30.08C243.677 29.6267 244.197 29.0533 244.677 28.36C245.157 27.6667 245.597 26.92 245.997 26.12C246.424 25.32 246.784 24.5733 247.077 23.88C247.397 23.88 247.557 24 247.557 24.24C247.291 24.9067 246.944 25.6667 246.517 26.52C246.091 27.3733 245.597 28.1867 245.037 28.96C244.504 29.7067 243.904 30.3333 243.237 30.84C242.597 31.3467 241.904 31.6 241.157 31.6ZM244.717 15.32C244.371 15.32 244.064 15.1867 243.797 14.92C243.557 14.6533 243.437 14.3333 243.437 13.96C243.437 13.5067 243.624 13.1067 243.997 12.76C244.371 12.3867 244.784 12.2 245.237 12.2C245.611 12.2 245.931 12.32 246.197 12.56C246.464 12.8 246.597 13.1067 246.597 13.48C246.597 13.96 246.411 14.3867 246.037 14.76C245.664 15.1333 245.224 15.32 244.717 15.32Z" fill="white"/>
</svg>
