<svg width="498" height="176" viewBox="0 0 498 176" fill="none" xmlns="http://www.w3.org/2000/svg">
<g clip-path="url(#clip0_305_3)">
<path fill-rule="evenodd" clip-rule="evenodd" d="M381.699 23.04C364.67 24.3843 343.906 61.4759 338.217 72.2631C357.205 63.2701 364.675 33.5873 381.699 23.04V23.04Z" fill="#434343" stroke="#353535" stroke-width="0.42" stroke-linecap="round"/>
<path fill-rule="evenodd" clip-rule="evenodd" d="M382.681 23.4507C364.67 24.7613 336.68 61.9709 328.905 72.793C350.262 63.804 363.111 34.0056 382.681 23.4507Z" fill="#434343" stroke="#353535" stroke-width="0.42" stroke-linecap="round"/>
<path fill-rule="evenodd" clip-rule="evenodd" d="M357.136 40.8997C347.05 42.5137 330.966 63.6673 326.492 69.801C338.539 63.9459 346.07 47.4937 357.136 40.8997V40.8997Z" fill="#434343" stroke="#353535" stroke-width="0.42" stroke-linecap="round"/>
<path fill-rule="evenodd" clip-rule="evenodd" d="M419.344 51.1764L446.225 87.1118L428.343 69.2643L453.127 99.4472L430.539 79.7629C423.002 75.8345 516.118 179.929 500.498 162.963C488.906 150.371 444.405 114.276 416.162 68.8739C405.716 52.0808 394.36 38.1984 386.306 22.8087L403.246 38.819L380.031 7.3237L394.776 23.5961L379.09 1.28717C394.537 18.9646 403.297 28.8899 419.344 51.1764V51.1764Z" fill="#434343" stroke="#353535" stroke-width="0.42" stroke-linecap="round"/>
<path fill-rule="evenodd" clip-rule="evenodd" d="M486.38 166.743L481.289 167.229L474.429 161.276L468.231 157.95L460.668 152.755L456.109 147.659L453.851 143.419C450.907 137.89 461.413 148.613 461.413 148.613L448.61 137.389L441.814 126.36L435.679 117.957L432.27 113.288C427.498 106.753 426.135 104.885 426.135 104.885L438.192 120.252L443.923 124.085C450.314 130.543 448.013 129.686 451.698 130.718C455.383 131.749 457.45 132.858 457.45 132.858C457.45 132.858 459.048 134.473 464.757 139.997C470.466 145.522 473.896 148.498 473.896 148.498L478.455 153.595C473.64 150.443 472.256 150.268 472.256 150.268L467.165 150.753L463.288 146.59C463.288 146.59 450.251 135.619 458.473 143.439C466.696 151.259 467.825 153.379 471.042 154.916C474.259 156.453 476.559 157.309 476.559 157.309L481.16 159.021L486.38 166.743V166.743Z" fill="#434343" stroke="#353535" stroke-width="0.42" stroke-linecap="round"/>
<path fill-rule="evenodd" clip-rule="evenodd" d="M435.095 137.292C434.481 141.151 435.409 145.121 436.44 148.917C436.929 150.717 438.279 152.301 439.578 153.793C440.985 155.408 442.803 156.747 444.493 158.161C445.345 158.874 448.284 160.606 447.198 160.168C443.938 158.852 441.497 155.687 437.884 155.494C435.742 155.379 440.622 158.288 441.639 159.869C441.841 160.184 441.013 160.724 441.371 160.918C442.405 161.479 443.838 161.237 444.957 161.668C446.648 162.319 448.014 163.476 449.706 164.126C450.708 164.512 451.832 164.696 452.935 164.736C453.99 164.775 455.021 164.447 456.072 164.361C456.846 164.299 457.676 164.52 458.405 164.293C459.414 163.978 462.144 162.995 461.094 162.793C452.015 161.043 461.15 163.162 460.646 162.53C459.592 161.206 456.335 159.961 454.696 159.155C453.658 158.644 452.927 157.99 451.84 157.557C449.707 156.707 449.049 154.645 447.198 153.418C444.71 151.767 442.033 150.227 440.026 148.167C438.675 146.78 438.095 144.965 437.337 143.292C436.449 141.333 435.426 135.215 435.095 137.292V137.292Z" fill="#434343" stroke="#353535" stroke-width="0.42" stroke-linecap="round"/>
<path fill-rule="evenodd" clip-rule="evenodd" d="M44 87.3661C44 87.3661 42.8204 87.3661 42.5913 87.3661C39.4977 87.3661 37.2034 87.9335 35.5803 89.0383C35.711 87.1456 35.7816 85.7206 35.7816 84.7111C35.7816 81.5852 35.2621 79.0031 34.2095 76.9616C33.1688 74.9201 31.8385 73.888 30.2059 73.888C28.2144 73.888 26.3633 75.4115 24.6413 78.4358C22.9789 81.3647 22.1485 84.9328 22.1485 89.1604C22.1485 92.63 22.8086 95.2358 24.1307 97.0331C25.452 98.8038 27.3832 99.6902 29.9466 99.6902C30.1663 99.6902 31.417 99.5424 33.699 99.2716C34.33 99.2224 34.8602 99.1988 35.2911 99.1988C36.7117 99.1988 38.1335 99.7404 39.5353 100.848C42.4287 103.061 43.8795 108.176 43.8795 116.197C43.8795 121.532 43.2995 126.305 42.1473 130.537C40.3656 137.082 37.7442 140.723 34.2594 141.485C32.9891 141.778 30.6262 141.927 27.163 141.927H24.2001L22.3585 142H21.1262C17.6438 142 15.4218 138.408 14.4701 131.249C14.1495 128.914 14 125.715 14 121.681C14.6809 121.73 15.1208 121.754 15.3107 121.754C17.5429 121.754 19.135 121.583 20.0961 121.239C21.1172 120.87 21.7781 120.626 22.0885 120.524C22.0076 122.295 21.9774 123.65 21.9774 124.56C21.9774 128.594 22.4785 131.914 23.4997 134.497C24.5106 137.102 25.8119 138.385 27.404 138.385C29.2342 138.385 30.9571 137.204 32.5586 134.791C33.5797 133.241 34.4505 131.275 35.1706 128.89C36.0921 125.764 36.5528 122.691 36.5528 119.663C36.5528 117.45 36.2922 115.435 35.762 113.615C35.2319 111.768 34.5408 110.465 33.6794 109.627C32.4892 108.519 30.9166 107.978 28.9843 107.978C28.4945 107.978 27.984 108.005 27.464 108.054C25.642 108.153 24.4505 108.202 23.8795 108.202C21.0069 108.202 18.7449 106.897 17.103 104.315C15.4622 101.709 14.6417 98.1903 14.6417 93.7113C14.6417 90.7865 14.9517 87.8319 15.5607 84.8569C16.1697 81.8818 16.4435 79.7769 18.0142 77.1329C20.0055 73.7809 22.1787 71.4013 25.1718 70.8607C25.7923 70.712 27.3333 70.6135 29.775 70.5663C30.7676 70.5663 31.7168 70.5171 32.6186 70.3693C34.1005 70.1252 35.0305 70 35.401 70C38.0636 70 40.1259 71.4998 41.6077 74.4749C43.0794 77.453 44 87.3661 44 87.3661ZM73.3731 90.7765C71.6328 98.0475 69.6208 110.079 67.3309 126.851C66.1888 135.493 65.3265 141.589 64.7413 145.189C64.1562 148.771 63.5637 151.589 62.9646 153.639C61.9727 157.132 60.9954 159.414 60.0176 160.535C59.0397 161.641 57.178 162.604 54.4391 163.405C52.3768 164.172 51.0638 164.564 50.5069 164.564C48.9019 164.564 47.5963 163.496 46.5765 161.373C45.2708 158.593 44.614 154.762 44.614 149.895C44.614 147.097 44.9564 143.926 45.6347 140.36C46.3197 136.795 47.2044 133.534 48.2888 130.611L53.8327 127.438C52.1558 130.736 50.9715 133.837 50.2792 136.724C49.5802 139.612 49.2303 142.891 49.2303 146.545C49.2303 150.341 49.6513 153.584 50.4862 156.258C50.8641 157.488 51.3421 158.468 51.927 159.216C52.5121 159.966 53.0973 160.339 53.6816 160.339C54.9663 160.339 56.258 158.272 57.5494 154.12C58.1486 152.177 59.0545 147.864 60.2676 141.216H55.8371C56.5285 135.262 56.8784 129.969 56.8784 125.335C56.8784 121.522 56.7002 117.333 56.3363 112.788C55.9724 108.243 55.5011 104.215 54.9162 100.704C54.4953 98.2623 53.9177 96.1788 53.1832 94.4298L47.6038 99.2419C47.9602 97.3881 48.4099 95.6072 48.9375 93.8612C49.4664 92.1122 49.9433 90.9006 50.3575 90.2071C50.6787 89.6913 51.1992 89.3137 51.9057 89.1204C52.6196 88.9049 53.7608 88.8001 55.3378 88.8001C56.3075 88.8001 56.9858 89.0483 57.3637 89.5307C57.7416 90.0117 58.1197 91.1154 58.5125 92.8265C59.1692 95.6793 59.7395 99.3305 60.2388 103.787C60.7314 108.243 61.074 112.769 61.2738 117.35C61.3949 120.772 61.4947 126.263 61.5666 133.856C61.9372 131.93 62.2153 130.434 62.3794 129.311C62.5436 128.205 63.7914 119.918 66.1177 104.447C67.2095 96.7304 67.8374 92.2913 68.001 91.1348L73.3731 90.7765ZM80.287 71.2952C80.0945 76.1453 79.9807 82.7214 79.9519 91.0456V117.725C81.2788 115.837 83.1694 112.432 85.6238 107.512C88.0853 102.592 90.7889 96.7832 93.729 90.1001H99.2012C98.3951 90.9363 97.46 92.31 96.3895 94.2173C95.3266 96.1409 93.7496 99.3141 91.6594 103.735C89.919 107.424 88.3988 110.435 87.101 112.752C86.3729 114.09 85.8587 115.034 85.5528 115.622C87.2791 118.831 89.041 122.377 90.8393 126.279C93.3502 131.718 95.1552 135.192 96.2542 136.743C97.3601 138.292 98.7654 139.309 100.479 139.806V141.109H90.5115C88.5706 136.439 86.5941 132.054 84.5822 127.957C82.5702 123.839 81.0223 121.075 79.9519 119.649V126.387C80.0238 134.176 80.13 139.094 80.287 141.109H74.5367C75.107 132.375 75.3932 120.54 75.3932 105.605C75.3932 90.9744 75.1714 79.5481 74.7291 71.2952L80.287 71.2952ZM115.503 141.056C115.389 141.056 114.704 141.144 113.455 141.324C112.657 141.429 111.886 141.483 111.13 141.483C109.225 141.483 107.684 140.948 106.514 139.862C104.73 138.186 103.339 135.459 102.339 131.663C101.348 127.868 100.849 123.428 100.849 118.351C100.849 114.802 101.078 111.345 101.541 108.012C102.511 100.776 104.202 95.7849 106.599 93.0748C108.355 91.0984 110.295 90.1001 112.428 90.1001L115.275 90.2072L118.3 90.1001C120.07 90.1001 121.56 90.5089 122.766 91.328C123.972 92.1501 125.042 93.4665 125.977 95.321C128.082 99.4211 129.13 105.658 129.13 114.019C129.13 119.794 128.538 125.015 127.354 129.684C126.013 134.96 124.229 138.451 122.003 140.112C121.083 140.805 119.805 141.163 118.178 141.163L115.503 141.056ZM115.568 92.4512C113.684 92.4512 111.901 94.0738 110.216 97.302C108.932 99.7794 107.912 102.771 107.156 106.265C106.392 109.758 106.014 113.268 106.014 116.781C106.014 122.358 106.771 127.189 108.29 131.307C109.103 133.464 110.095 135.192 111.273 136.492C112.449 137.794 113.605 138.451 114.754 138.451C116.566 138.451 118.271 136.831 119.87 133.605C121.097 131.128 122.067 128.116 122.78 124.569C123.487 120.987 123.843 117.405 123.843 113.858C123.843 107.797 123.002 102.738 121.318 98.6712C119.67 94.6618 117.751 92.5947 115.568 92.4512ZM163.698 97.4068C166.258 92.5419 168.142 89.2617 169.348 87.5692C170.554 85.8752 171.617 85.039 172.537 85.039C174.25 85.039 175.826 87.034 177.282 91.0456C178.06 93.1655 178.673 96.0183 179.129 99.5817C179.579 103.147 179.808 106.888 179.808 110.829C179.808 115.873 179.251 120.631 178.138 125.084C177.103 129.257 175.969 132.269 174.742 134.104C173.508 135.959 171.681 137.403 169.277 138.451C168.342 138.829 167.33 139.415 166.244 140.218C164.796 141.269 163.384 141.787 161.999 141.787C160.451 141.787 159.146 141.109 158.075 139.772C156.999 138.437 155.907 136.1 154.794 132.75C152.896 134.869 151.662 136.172 151.091 136.616C150.52 137.063 149.457 137.651 147.916 138.346C146.924 138.791 145.547 139.505 143.77 140.485C142.258 141.324 140.939 141.732 139.825 141.732C137.607 141.732 135.916 139.933 134.745 136.351C133.49 132.554 132.861 127.777 132.861 122.002C132.861 118.384 133.162 114.695 133.761 110.953C134.36 107.211 135.174 103.914 136.208 101.062C136.908 99.1178 138.313 96.3914 140.431 92.9149L132.591 95.5715L134.053 89.8852C136.65 89.9923 138.797 90.045 140.518 90.045C142.394 90.045 145.533 89.8681 149.921 89.5307V90.7236C148.194 91.4907 146.832 92.489 145.847 93.7005C142.843 97.388 140.638 103.199 139.219 111.132C138.52 114.963 138.17 118.456 138.17 121.629C138.17 125.602 138.662 128.989 139.654 131.804C140.896 135.352 142.523 137.135 144.528 137.135C145.491 137.135 146.497 136.262 147.559 134.53C150.249 130.112 152.189 123.464 153.388 114.59C154.087 109.331 154.437 104.035 154.437 98.7089C154.437 96.3028 154.351 93.3616 154.187 89.8852L160.665 90.5088C159.396 98.2793 158.76 106.033 158.76 113.803C158.76 118.705 159.096 122.752 159.766 125.906C160.458 129.184 161.4 131.877 162.578 133.978C163.755 136.083 164.903 137.135 166.031 137.135C168.136 137.135 170.097 134.37 171.924 128.828C173.721 123.41 174.621 117.512 174.621 111.132C174.621 106.265 174.035 102.076 172.865 98.5654C171.853 95.4287 170.632 93.8611 169.213 93.8611C168.071 93.8611 166.316 95.3588 163.948 98.3506L163.698 97.4068ZM187.734 89.9396C187.862 91.7584 187.941 92.9336 187.984 93.4859C188.083 94.8045 188.162 95.9112 188.211 96.7831C189.946 94.1266 191.551 92.3293 193.035 91.366C194.519 90.4034 196.474 89.9039 198.893 89.8325C199.52 89.7968 200.127 89.7627 200.711 89.7247C201.775 89.6534 202.624 89.6192 203.266 89.6192C205.992 89.6192 208.06 91.7205 209.473 95.9447C210.586 99.2776 211.143 103.414 211.143 108.315C211.143 114.375 210.493 120.078 209.202 125.443C208.652 127.742 207.932 129.684 207.033 131.271C206.141 132.855 204.736 134.675 202.824 136.724C205.614 136.475 208.381 135.653 211.121 134.265L209.494 141.056H191.015V139.701C192.35 139.665 193.748 139.183 195.203 138.239C196.659 137.295 197.964 136.012 199.121 134.37C201.104 131.627 202.688 127.99 203.886 123.464C205.085 118.937 205.684 114.338 205.684 109.687C205.684 105.018 205.007 100.936 203.659 97.4617C202.36 94.0924 200.684 92.3984 198.622 92.3984C196.431 92.3984 194.44 94.5012 192.643 98.709C188.954 107.459 187.106 119.703 187.106 135.478C187.106 136.937 187.115 138.791 187.127 141.056H181.547C181.633 139.844 181.896 136.262 182.339 130.343C182.453 128.757 182.582 125.192 182.739 119.667C182.888 114.16 182.967 110.043 182.967 107.333C182.967 103.324 182.859 100.133 182.653 97.765C182.446 95.4117 182.046 92.9336 181.461 90.3484C181.989 90.3484 182.324 90.3484 182.467 90.3484C185.172 90.332 186.927 90.1886 187.733 89.9396L187.734 89.9396ZM227.109 141.056C226.995 141.056 226.31 141.144 225.062 141.324C224.263 141.429 223.492 141.483 222.736 141.483C220.831 141.483 219.29 140.948 218.12 139.862C216.337 138.186 214.945 135.459 213.946 131.663C212.955 127.868 212.455 123.428 212.455 118.351C212.455 114.802 212.683 111.345 213.147 108.012C214.118 100.776 215.808 95.7849 218.205 93.0748C219.96 91.0984 221.901 90.1001 224.035 90.1001L226.881 90.2072L229.906 90.1001C231.675 90.1001 233.166 90.5089 234.372 91.328C235.579 92.1501 236.648 93.4665 237.583 95.321C239.687 99.4211 240.736 105.658 240.736 114.019C240.736 119.794 240.145 125.015 238.96 129.684C237.619 134.96 235.835 138.451 233.609 140.112C232.689 140.805 231.412 141.163 229.784 141.163L227.109 141.056ZM227.174 92.4512C225.29 92.4512 223.507 94.0738 221.823 97.302C220.539 99.7794 219.519 102.771 218.762 106.265C217.998 109.758 217.62 113.268 217.62 116.781C217.62 122.358 218.377 127.189 219.897 131.307C220.71 133.464 221.701 135.192 222.879 136.492C224.056 137.794 225.211 138.451 226.36 138.451C228.172 138.451 229.878 136.831 231.476 133.605C232.703 131.128 233.673 128.116 234.387 124.569C235.092 120.987 235.449 117.405 235.449 113.858C235.449 107.797 234.608 102.738 232.924 98.6712C231.276 94.6618 229.356 92.5947 227.174 92.4512ZM303.413 72.838L299.494 86.9406C293.311 79.1987 286.997 75.3403 280.584 75.3403C275.289 75.3403 270.942 78.4736 267.513 84.7372C265.747 87.9186 264.369 91.7269 263.351 96.184C262.346 100.644 261.845 105.104 261.845 109.535C261.845 118.654 263.825 126.147 267.77 132.011C271.128 136.993 274.958 139.498 279.248 139.498C282.549 139.498 286.309 138.02 290.527 135.088C294.744 132.159 298.475 128.377 301.718 123.793L297.141 141.029C296.022 141.13 293.483 141.503 289.536 142.131C284.888 142.856 279.852 143.232 274.442 143.232C269.061 143.232 264.901 142.305 261.96 140.452C257.698 137.695 254.699 132.66 252.963 125.32C251.931 120.86 251.413 116.001 251.413 110.714C251.413 101.521 252.833 93.4538 255.66 86.4882C259.304 77.6471 264.169 72.7136 270.238 71.6855C272.117 71.3836 274.6 71.2321 277.685 71.2321C280.34 71.2321 288.029 71.7095 300.757 72.6331L303.413 72.838ZM312.794 70.0707C312.708 71.3893 312.644 72.262 312.601 72.6894C312.423 75.2916 312.308 77.3246 312.265 78.7659C312.23 80.2094 312.216 83.0451 312.23 87.2507C312.25 88.0899 312.23 92.0466 312.166 99.1027C313.321 97.3039 314.484 95.8077 315.654 94.6132C316.753 93.5429 317.63 92.8115 318.287 92.4555C318.944 92.0801 320.292 91.5999 322.34 91.012C322.511 90.9406 323.16 90.7258 324.287 90.3341C325.486 89.9253 326.413 89.7119 327.084 89.7119C328.268 89.7119 329.303 90.1044 330.18 90.9049C331.529 92.1351 332.62 94.3456 333.441 97.5351C334.376 101.134 334.84 105.108 334.84 109.495C334.84 116.8 333.683 123.378 331.372 129.189C329.98 132.664 327.648 135.925 324.394 138.938C326.941 138.188 329.046 137.547 330.702 137.065C332.777 136.477 334.411 135.873 335.595 135.23L333.733 142.288H314.755V140.879C316.439 140.666 317.802 140.202 318.843 139.49C319.878 138.778 320.956 137.583 322.068 135.925C324.644 132.059 326.584 127.174 327.876 121.292C328.711 117.514 329.131 114.002 329.131 110.811C329.131 106.802 328.603 103.131 327.54 99.7985C326.278 95.717 324.765 93.6856 323.01 93.6856C321.505 93.6856 319.842 95.3966 318.016 98.7994C315.868 102.809 314.234 107.854 313.1 113.932C312.615 116.587 312.258 119.263 312.03 121.987C311.795 124.697 311.617 128.51 311.473 133.414C311.373 136.852 311.324 139.811 311.309 142.288H305.766C306.336 136.229 306.75 129.294 306.993 121.507C307.236 113.7 307.357 103.649 307.357 91.3323C307.357 86.1448 307.272 82.3144 307.093 79.8362C306.921 77.3588 306.536 74.4532 305.937 71.1217C306.422 71.0504 307.292 70.9426 308.549 70.8013C309.733 70.6921 311.145 70.4624 312.794 70.0707ZM366.145 90.2262C365.425 101.296 365.06 112.969 365.06 125.268C365.06 131.7 365.339 137.315 365.895 142.076L360.481 143.232C360.316 141.45 360.152 138.438 360.003 134.197C358.291 137.263 356.642 139.311 355.072 140.362C354.359 140.807 353.824 141.094 353.475 141.218C353.117 141.344 352.119 141.557 350.471 141.877C350.264 141.915 349.493 142.128 348.174 142.556C347.225 142.859 346.333 143.02 345.498 143.02C342.823 143.02 340.675 140.897 339.062 136.656C337.629 132.931 336.907 127.71 336.907 120.991C336.907 114.059 337.743 107.854 339.42 102.401C341.909 94.2549 345.119 90.1734 349.051 90.1734C349.708 90.1734 350.442 90.2641 351.27 90.4432C352.533 90.7443 353.917 90.9576 355.407 91.0647C356.072 91.1004 356.649 91.2267 357.127 91.4564C357.612 91.672 358.697 92.3313 360.402 93.4016C360.666 93.5763 360.994 93.667 361.38 93.667C362.4 93.667 363.991 92.5267 366.145 90.2262ZM360.294 107C359.582 103.132 358.768 100.262 357.848 98.3743C356.428 95.4137 354.758 93.9346 352.832 93.9346C350.87 93.9346 348.894 95.8225 346.917 99.6193C343.743 105.679 342.152 112.845 342.152 121.098C342.152 126.391 342.908 130.738 344.427 134.144C346.033 137.688 347.652 139.471 349.279 139.471C351.212 139.471 353.282 136.852 355.465 131.629C357.377 127.048 358.775 121.524 359.667 115.091C359.931 113.13 360.116 111.17 360.21 109.189C360.295 107.819 360.323 107.089 360.294 107ZM385.88 79.3731C383.804 83.937 382.291 87.9109 381.342 91.2795C381.734 91.2438 383.005 91.2267 385.166 91.2267C386.614 91.1888 388.627 91.0119 391.209 90.7086L389.533 96.3934C386.679 96.5911 383.418 96.6966 379.751 96.6966C377.925 105.43 377.011 113.256 377.011 120.152C377.011 127.103 377.589 131.879 378.745 134.446C379.929 137.137 381.356 138.475 383.011 138.475C384.503 138.475 386.015 137.048 387.549 134.197C387.578 134.159 388.491 132.253 390.288 128.51L388.534 141.344C387.443 141.755 385.958 141.968 384.083 141.968L382.491 141.915C382.099 141.915 381.663 141.949 381.17 142.021C379.238 142.341 378.16 142.502 377.953 142.502C375.976 142.502 374.515 140.541 373.566 136.603C372.717 133.127 372.288 128.51 372.288 122.754C372.288 118.406 372.495 113.984 372.916 109.476C373.337 104.967 373.93 100.761 374.693 96.8572H367.609L369.535 91.2795H375.884C376.641 87.7318 377.739 84.1683 379.187 80.5677L385.88 79.3731ZM421.481 90.2262C420.761 101.296 420.397 112.969 420.397 125.268C420.397 131.7 420.675 137.315 421.231 142.076L415.817 143.232C415.652 141.45 415.488 138.438 415.338 134.197C413.627 137.263 411.978 139.311 410.408 140.362C409.695 140.807 409.16 141.094 408.811 141.218C408.453 141.344 407.455 141.557 405.807 141.877C405.6 141.915 404.829 142.128 403.509 142.556C402.56 142.859 401.668 143.02 400.834 143.02C398.158 143.02 396.011 140.897 394.399 136.656C392.965 132.931 392.243 127.71 392.243 120.991C392.243 114.059 393.078 107.854 394.755 102.401C397.245 94.2549 400.455 90.1734 404.386 90.1734C405.044 90.1734 405.778 90.2641 406.606 90.4432C407.869 90.7443 409.253 90.9576 410.743 91.0647C411.407 91.1004 411.985 91.2267 412.463 91.4564C412.948 91.672 414.033 92.3313 415.738 93.4016C416.002 93.5763 416.33 93.667 416.715 93.667C417.735 93.667 419.327 92.5267 421.481 90.2262ZM415.631 107C414.917 103.132 414.104 100.262 413.184 98.3743C411.764 95.4137 410.094 93.9346 408.168 93.9346C406.206 93.9346 404.23 95.8225 402.253 99.6193C399.079 105.679 397.488 112.845 397.488 121.098C397.488 126.391 398.243 130.738 399.764 134.144C401.369 137.688 402.988 139.471 404.615 139.471C406.548 139.471 408.617 136.852 410.801 131.629C412.712 127.048 414.111 121.524 415.003 115.091C415.266 113.13 415.452 111.17 415.545 109.189C415.631 107.819 415.659 107.089 415.631 107Z" fill="#353535" stroke="#353535" stroke-width="0.2" stroke-linecap="round"/>
</g>
<defs>
<clipPath id="clip0_305_3">
<rect width="498" height="176" fill="white"/>
</clipPath>
</defs>
</svg>
