<svg width="160" height="60" xmlns="http://www.w3.org/2000/svg" version="1.1">
 <metadata id="metadata49">image/svg+xml</metadata>

 <g>
  <title>Layer 1</title>
  <path id="path2" d="m125.8282,5.03908c-5.3343,0.4965 -11.8385,14.1951 -13.6207,18.179c5.9479,-3.3213 8.2881,-14.2837 13.6207,-18.179z" stroke-width="0.4161" stroke="#ffffff" fill-rule="evenodd" fill="#1b1918"/>
  <path id="path4" d="m125.5096,5.19078c-5.6422,0.484 -14.4101,14.2262 -16.8458,18.223c6.6904,-3.3198 10.7152,-14.3249 16.8458,-18.223z" stroke-width="0.4161" stroke="#ffffff" fill-rule="evenodd" fill="#1b1918"/>
  <path id="path6" d="m118.1339,11.63498c-3.1595,0.5961 -8.1978,8.4085 -9.5992,10.6738c3.7736,-2.1624 6.1329,-8.2385 9.5992,-10.6738z" stroke-width="0.4161" stroke="#ffffff" fill-rule="evenodd" fill="#1b1918"/>
  <path id="path8" d="m135.428,15.43038l8.4207,13.2716l-5.6016,-6.5914l7.7636,11.1471l-7.0757,-7.2698c-2.361,-1.4508 26.8076,36.9931 21.9148,30.7273c-3.6312,-4.6504 -17.5715,-17.9809 -26.4185,-34.7488c-3.2723,-6.202 -6.8295,-11.329 -9.3527,-17.0127l5.3067,5.9129l-7.2722,-11.6318l4.6189,6.0097l-4.9137,-8.2391c4.8389,6.5286 7.5829,10.1942 12.6097,18.425z" stroke-width="0.4161" stroke="#ffffff" fill-rule="evenodd" fill="#1b1918"/>
  <path id="path10" d="m155.4874,58.11138l-1.5947,0.1793l-2.1488,-2.1984l-1.9418,-1.2286l-2.3689,-1.9183l-1.4281,-1.8822l-0.7074,-1.566c-0.9224,-2.0419 2.3689,1.9182 2.3689,1.9182l-4.0106,-4.1453l-2.1289,-4.0731l-1.9219,-3.1034l-1.0678,-1.7241c-1.4948,-2.4138 -1.9219,-3.1034 -1.9219,-3.1034l3.7771,5.6752l1.7951,1.4154c2.0019,2.3851 1.2813,2.0689 2.4356,2.4499c1.1544,0.3809 1.8017,0.7904 1.8017,0.7904c0,0 0.5005,0.5963 2.2889,2.6366c1.7884,2.0403 2.8628,3.1395 2.8628,3.1395l1.4281,1.8822c-1.5081,-1.1639 -1.9418,-1.2287 -1.9418,-1.2287l-1.5948,0.1793l-1.2145,-1.5374c0,0 -4.0839,-4.0519 -1.5081,-1.1639c2.5759,2.888 2.9296,3.671 3.9372,4.2387c1.0076,0.5676 1.7282,0.8838 1.7282,0.8838l1.4413,0.6324l1.6351,2.8519z" stroke-width="0.4161" stroke="#ffffff" fill-rule="evenodd" fill="#1b1918"/>
  <path id="path12" d="m138.1694,47.23438c-0.1926,1.4251 0.0982,2.8915 0.4213,4.2935c0.1531,0.6647 0.5759,1.2497 0.9829,1.8005c0.4409,0.5968 1.0103,1.0912 1.5397,1.6134c0.2669,0.2632 1.1874,0.9029 0.8474,0.7411c-1.0214,-0.486 -1.7861,-1.6547 -2.9178,-1.7262c-0.6709,-0.0425 0.8577,1.032 1.1762,1.6159c0.0634,0.1162 -0.1961,0.3156 -0.0838,0.3873c0.3238,0.2071 0.7727,0.118 1.1233,0.2771c0.5296,0.2402 0.9577,0.6676 1.4875,0.9078c0.314,0.1424 0.6662,0.2104 1.0115,0.2254c0.3306,0.0143 0.6536,-0.107 0.9829,-0.1385c0.2425,-0.0232 0.5023,0.0587 0.7306,-0.0252c0.3162,-0.1164 1.1713,-0.4793 0.8425,-0.554c-2.844,-0.6462 0.0174,0.1362 -0.1404,-0.0973c-0.3303,-0.4887 -1.3505,-0.9487 -1.8637,-1.2465c-0.3252,-0.1885 -0.5543,-0.4302 -0.8948,-0.59c-0.6681,-0.3138 -0.8743,-1.0753 -1.454,-1.5288c-0.7796,-0.6097 -1.6181,-1.1782 -2.2467,-1.939c-0.4232,-0.5124 -0.6049,-1.1825 -0.8425,-1.8005c-0.2782,-0.7235 -0.5984,-2.9831 -0.7021,-2.216z" stroke-width="0.4161" stroke="#ffffff" fill-rule="evenodd" fill="#1b1918"/>
  <path id="path30" d="m12.3449,37.21049c-0.1642,0 -0.2888,0 -0.3449,0c-0.7574,0 -1.3191,0.1502 -1.7165,0.44271c0.032,-0.50111 0.0493,-0.87837 0.0493,-1.14562c0,-0.82758 -0.1272,-1.5112 -0.3849,-2.05169c-0.2548,-0.54049 -0.5805,-0.81372 -0.9802,-0.81372c-0.4876,0 -0.9408,0.40333 -1.3624,1.20402c-0.407,0.77543 -0.6103,1.72006 -0.6103,2.83934c0,0.91856 0.1616,1.60844 0.4853,2.08428c0.3235,0.46879 0.7963,0.70345 1.4239,0.70345c0.0538,0 0.36,-0.03911 0.9187,-0.11081c0.1545,-0.01304 0.2843,-0.01928 0.3898,-0.01928c0.3478,0 0.6959,0.14341 1.0391,0.43674c0.7084,0.58585 1.0636,1.94006 1.0636,4.06346c0,1.41261 -0.142,2.67611 -0.4241,3.79647c-0.4362,1.73283 -1.078,2.69675 -1.9312,2.89855c-0.311,0.07768 -0.8895,0.11706 -1.7374,0.11706l-0.7254,0l-0.4509,0.01928l-0.3017,0c-0.8526,0 -1.3966,-0.95088 -1.6296,-2.8464c-0.0785,-0.61817 -0.1151,-1.46503 -0.1151,-2.53297c0.1667,0.01304 0.2744,0.01928 0.3209,0.01928c0.5465,0 0.9363,-0.04536 1.1716,-0.13634c0.25,-0.09778 0.4118,-0.16242 0.4878,-0.18931c-0.0198,0.46879 -0.0272,0.82758 -0.0272,1.06849c0,1.06794 0.1227,1.94713 0.3727,2.63075c0.2475,0.68987 0.5661,1.02938 0.9559,1.02938c0.4481,0 0.8699,-0.31262 1.262,-0.95143c0.25,-0.41039 0.4632,-0.93079 0.6395,-1.56226c0.2256,-0.82758 0.3384,-1.6413 0.3384,-2.4428c0,-0.58585 -0.0638,-1.11955 -0.1936,-1.60137c-0.1298,-0.48889 -0.299,-0.83382 -0.5099,-1.05572c-0.2914,-0.29333 -0.6764,-0.43647 -1.1495,-0.43647c-0.1199,0 -0.2449,0.00706 -0.3722,0.0201c-0.4461,0.02607 -0.7378,0.03911 -0.8776,0.03911c-0.7033,0 -1.2571,-0.34548 -1.6591,-1.02911c-0.4017,-0.68987 -0.6026,-1.62147 -0.6026,-2.80729c0,-0.77434 0.0759,-1.55656 0.225,-2.34421c0.1523,-0.78846 0.3507,-1.47128 0.6007,-2.0449c0.4362,-0.96392 1.0196,-1.51745 1.7524,-1.66058c0.1519,-0.03938 0.5292,-0.06546 1.127,-0.07795c0.243,0 0.4754,-0.01304 0.6962,-0.05215c0.3628,-0.06464 0.5905,-0.09778 0.6812,-0.09778c0.6519,0 1.1568,0.39708 1.5196,1.18473c0.3603,0.78846 0.5562,1.92784 0.5857,3.41297l0,-0.00001zm10.0893,-4.25277c-0.5978,2.65683 -1.2889,7.053 -2.0755,13.18146c-0.3923,3.15793 -0.6885,5.38535 -0.8895,6.701c-0.201,1.30886 -0.4045,2.33823 -0.6103,3.08732c-0.3407,1.27654 -0.6764,2.11036 -1.0123,2.51994c-0.3359,0.40415 -0.9754,0.75614 -1.9162,1.04866c-0.7084,0.28029 -1.1594,0.42343 -1.3507,0.42343c-0.5513,0 -0.9998,-0.39029 -1.3501,-1.16572c-0.4485,-1.01607 -0.6741,-2.41591 -0.6741,-4.19437c0,-1.02232 0.1176,-2.18098 0.3506,-3.48386c0.2353,-1.30261 0.5392,-2.49441 0.9117,-3.56235l1.9043,-1.15948c-0.576,1.2051 -0.9828,2.33823 -1.2206,3.39314c-0.2401,1.05545 -0.3603,2.25349 -0.3603,3.58842c0,1.38735 0.1446,2.57236 0.4314,3.54931c0.1298,0.4495 0.294,0.80748 0.4949,1.08098c0.201,0.27405 0.402,0.41012 0.6027,0.41012c0.4413,0 0.885,-0.75506 1.3286,-2.27251c0.2058,-0.70997 0.517,-2.28581 0.9337,-4.71504l-1.5219,0c0.2375,-2.17554 0.3577,-4.10963 0.3577,-5.80281c0,-1.39333 -0.0612,-2.92381 -0.1862,-4.58467c-0.125,-1.66058 -0.2869,-3.13267 -0.4878,-4.41546c-0.1446,-0.89222 -0.343,-1.65352 -0.5953,-2.2926l-1.9165,1.75836c0.1224,-0.67738 0.2769,-1.32814 0.4581,-1.96614c0.1817,-0.63908 0.3455,-1.0818 0.4878,-1.3352c0.1103,-0.18849 0.2891,-0.32647 0.5318,-0.39708c0.2452,-0.07877 0.6372,-0.11706 1.1789,-0.11706c0.3331,0 0.5661,0.09072 0.6959,0.26699c0.1298,0.17573 0.2597,0.57906 0.3946,1.20429c0.2256,1.04241 0.4215,2.37653 0.593,4.00506c0.1692,1.62826 0.2869,3.28206 0.3555,4.95568c0.0416,1.25046 0.0759,3.2568 0.1006,6.0315c0.1273,-0.70372 0.2228,-1.25046 0.2792,-1.66086c0.0564,-0.40415 0.485,-3.43198 1.2841,-9.08541c0.375,-2.81952 0.5907,-4.44153 0.6469,-4.86415l1.8453,-0.13091l0,0.00002zm2.3749,-7.11846c-0.0661,1.77221 -0.1052,4.17509 -0.1151,7.21678l0,9.74866c0.4558,-0.68987 1.1052,-1.93409 1.9483,-3.73183c0.8455,-1.79774 1.7742,-3.92032 2.7841,-6.36231l1.8797,0c-0.2769,0.30555 -0.5981,0.80748 -0.9658,1.50441c-0.3651,0.70291 -0.9068,1.86238 -1.6248,3.47761c-0.5978,1.34797 -1.12,2.44823 -1.5658,3.29509c-0.2501,0.48889 -0.4267,0.83382 -0.5318,1.04866c0.593,1.17251 1.1982,2.46833 1.8159,3.89398c0.8625,1.98732 1.4825,3.2568 1.86,3.82336c0.3799,0.56602 0.8626,0.93785 1.4511,1.11955l0,0.47585l-3.4237,0c-0.6667,-1.70621 -1.3456,-3.3084 -2.0367,-4.80575c-0.6911,-1.50441 -1.2228,-2.5145 -1.5905,-3.03571l0,2.46209c0.0247,2.8464 0.0612,4.64333 0.1151,5.37938l-1.9752,0c0.1959,-3.19134 0.2942,-7.51581 0.2942,-12.97287c0,-5.34624 -0.0762,-9.52133 -0.2281,-12.53694l1.9091,0l0,-0.00001zm12.0968,25.49053c-0.0394,0 -0.2746,0.03232 -0.7035,0.09778c-0.2744,0.03857 -0.5392,0.05839 -0.7988,0.05839c-0.6543,0 -1.1838,-0.19555 -1.5857,-0.59264c-0.6126,-0.61219 -1.0905,-1.60844 -1.4338,-2.99579c-0.3404,-1.38654 -0.5119,-3.00882 -0.5119,-4.86415c0,-1.29663 0.0785,-2.56013 0.2375,-3.778c0.3334,-2.64379 0.9142,-4.46761 1.7377,-5.45787c0.6029,-0.72219 1.2693,-1.08696 2.0021,-1.08696l0.9779,0.03911l1.0392,-0.03911c0.6078,0 1.1197,0.14938 1.5338,0.44869c0.4145,0.30039 0.7821,0.7814 1.103,1.45905c0.7231,1.49816 1.0831,3.77719 1.0831,6.83219c0,2.11009 -0.2032,4.0181 -0.61,5.72404c-0.4606,1.92784 -1.0735,3.20356 -1.838,3.81033c-0.3161,0.25313 -0.7549,0.38405 -1.3138,0.38405l-0.9188,-0.03911zm0.0222,-17.76015c-0.6472,0 -1.2598,0.59291 -1.8383,1.77248c-0.4411,0.90525 -0.7914,1.99846 -1.0514,3.27499c-0.2622,1.27654 -0.392,2.55905 -0.392,3.84265c0,2.03784 0.2599,3.80326 0.7818,5.30767c0.2792,0.78846 0.6199,1.41967 1.0244,1.89471c0.4042,0.47585 0.8011,0.71595 1.196,0.71595c0.6224,0 1.2081,-0.5921 1.7572,-1.77085c0.4215,-0.90525 0.7548,-2.00552 0.9997,-3.30188c0.2427,-1.30886 0.3651,-2.61771 0.3651,-3.91353c0,-2.21493 -0.2891,-4.06346 -0.8674,-5.5494c-0.566,-1.46503 -1.2254,-2.22036 -1.9751,-2.27278l0,-0.00001zm16.5325,1.81078c0.8795,-1.77764 1.5267,-2.97623 1.9408,-3.59467c0.4142,-0.61898 0.7793,-0.92454 1.0953,-0.92454c0.5885,0 1.1299,0.72898 1.63,2.19483c0.2673,0.77461 0.4779,1.81703 0.6346,3.11909c0.1545,1.30261 0.2331,2.66986 0.2331,4.10963c0,1.8431 -0.1914,3.58163 -0.5738,5.20908c-0.3554,1.52451 -0.7449,2.62532 -1.1664,3.29591c-0.4238,0.67765 -1.0514,1.2051 -1.8771,1.58834c-0.3212,0.13797 -0.669,0.352 -1.0418,0.64533c-0.4975,0.38405 -0.9825,0.57335 -1.4581,0.57335c-0.5318,0 -0.9802,-0.2477 -1.3479,-0.73605c-0.3699,-0.48807 -0.7449,-1.34172 -1.1273,-2.56584c-0.652,0.77434 -1.0758,1.25019 -1.2719,1.41261c-0.1962,0.16323 -0.5613,0.37807 -1.0905,0.63202c-0.3407,0.16269 -0.8138,0.42343 -1.4241,0.78167c-0.5194,0.30637 -0.9726,0.45575 -1.3553,0.45575c-0.7619,0 -1.3428,-0.65755 -1.7447,-1.96641c-0.4314,-1.38735 -0.6472,-3.13267 -0.6472,-5.24303c0,-1.32189 0.1032,-2.66986 0.309,-4.03739c0.2058,-1.36725 0.4853,-2.57208 0.8405,-3.61396c0.2404,-0.71051 0.7231,-1.70676 1.4508,-2.97705l-2.6932,0.97071l0.5023,-2.07777c0.892,0.03911 1.6296,0.05839 2.2206,0.05839c0.6443,0 1.7226,-0.06464 3.2298,-0.18795l0,0.43592c-0.593,0.28029 -1.061,0.64506 -1.3992,1.08777c-1.0318,1.34742 -1.7892,3.47082 -2.2768,6.36937c-0.24,1.39984 -0.3602,2.67611 -0.3602,3.83558c0,1.45199 0.1689,2.68942 0.5096,3.71798c0.4266,1.29636 0.9854,1.94794 1.6742,1.94794c0.3308,0 0.6763,-0.31886 1.0411,-0.9517c0.9241,-1.61441 1.5906,-4.04363 2.0024,-7.28631c0.2401,-1.92159 0.3603,-3.8565 0.3603,-5.80281c0,-0.87918 -0.0295,-1.95392 -0.0859,-3.2242l2.2252,0.22788c-0.4359,2.83934 -0.6542,5.67244 -0.6542,8.51178c0,1.79095 0.1151,3.26983 0.3455,4.42252c0.2376,1.19777 0.5613,2.18179 0.9658,2.94934c0.4042,0.76918 0.7988,1.1535 1.186,1.1535c0.7231,0 1.3969,-1.01036 2.0242,-3.03517c0.6174,-1.97999 0.9264,-4.13516 0.9264,-6.46634c0,-1.77846 -0.201,-3.30895 -0.6029,-4.59173c-0.3478,-1.14617 -0.7671,-1.71898 -1.2547,-1.71898c-0.392,0 -0.9949,0.54728 -1.8085,1.64048l-0.0858,-0.34494l0,0.00007zm8.2564,-2.72853c0.044,0.66461 0.0712,1.09402 0.0859,1.29582c0.034,0.48182 0.0612,0.88624 0.078,1.20483c0.5958,-0.97071 1.1472,-1.62745 1.6568,-1.97945c0.51,-0.35173 1.1815,-0.53424 2.0123,-0.56032c0.2155,-0.01304 0.4238,-0.02553 0.6245,-0.03938c0.3654,-0.02607 0.6571,-0.03857 0.8776,-0.03857c0.9363,0 1.6467,0.76782 2.132,2.31135c0.3826,1.21787 0.5737,2.72934 0.5737,4.52002c0,2.21438 -0.2231,4.2984 -0.6667,6.25856c-0.1888,0.84007 -0.4363,1.54977 -0.745,2.12964c-0.3064,0.57879 -0.7891,1.24394 -1.4459,1.99248c0.9584,-0.09099 1.9091,-0.39111 2.8502,-0.89846l-0.559,2.48137l-6.3473,0l0,-0.49513c0.4586,-0.01304 0.9388,-0.18931 1.4386,-0.53424c0.5,-0.34494 0.9484,-0.81372 1.3456,-1.4137c0.6811,-1.00222 1.2254,-2.33117 1.637,-3.98497c0.4116,-1.65434 0.6174,-3.33448 0.6174,-5.03417c0,-1.70621 -0.2325,-3.19759 -0.6957,-4.46706c-0.4461,-1.23118 -1.0218,-1.85016 -1.7302,-1.85016c-0.7523,0 -1.4363,0.76837 -2.0537,2.30591c-1.2671,3.19732 -1.9018,7.67117 -1.9018,13.43541c0,0.53289 0.003,1.21054 0.007,2.03811l-1.9165,0c0.0295,-0.44271 0.1199,-1.75157 0.2721,-3.91435c0.0391,-0.5796 0.0833,-1.88221 0.1372,-3.90104c0.0513,-2.01231 0.0785,-3.51672 0.0785,-4.50699c0,-1.46503 -0.0371,-2.63075 -0.108,-3.49608c-0.0711,-0.8599 -0.2083,-1.76542 -0.4093,-2.71006c0.1814,0 0.2965,0 0.3455,0c0.929,-0.00598 1.5319,-0.05839 1.8088,-0.14938l0.0004,0l0,0.00001zm13.5253,18.6779c-0.0392,0 -0.2744,0.03232 -0.7033,0.09778c-0.2744,0.03857 -0.5392,0.05839 -0.7991,0.05839c-0.6542,0 -1.1835,-0.19555 -1.5854,-0.59264c-0.6126,-0.61219 -1.0905,-1.60844 -1.4338,-2.99579c-0.3404,-1.38654 -0.5122,-3.00882 -0.5122,-4.86415c0,-1.29663 0.0785,-2.56013 0.2378,-3.778c0.3334,-2.64379 0.9139,-4.46761 1.7374,-5.45787c0.6029,-0.72219 1.2696,-1.08696 2.0024,-1.08696l0.9779,0.03911l1.0389,-0.03911c0.6078,0 1.12,0.14938 1.5341,0.44869c0.4145,0.30039 0.7818,0.7814 1.103,1.45905c0.7228,1.49816 1.0831,3.77719 1.0831,6.83219c0,2.11009 -0.2032,4.0181 -0.61,5.72404c-0.4609,1.92784 -1.0735,3.20356 -1.838,3.81033c-0.3163,0.25313 -0.7549,0.38405 -1.3139,0.38405l-0.9189,-0.03911zm0.0221,-17.76015c-0.6469,0 -1.2595,0.59291 -1.838,1.77248c-0.4411,0.90525 -0.7915,1.99846 -1.0514,3.27499c-0.2625,1.27654 -0.3923,2.55905 -0.3923,3.84265c0,2.03784 0.2599,3.80326 0.7821,5.30767c0.2792,0.78846 0.6199,1.41967 1.0244,1.89471c0.4042,0.47585 0.8011,0.71595 1.1957,0.71595c0.6225,0 1.2084,-0.5921 1.7572,-1.77085c0.4215,-0.90525 0.7548,-2.00552 1,-3.30188c0.2424,-1.30886 0.3648,-2.61771 0.3648,-3.91353c0,-2.21493 -0.2888,-4.06346 -0.8674,-5.5494c-0.566,-1.46503 -1.2254,-2.22036 -1.9751,-2.27278l0,-0.00001zm16.802,0.07252l-0.6692,3.6661c-1.0562,-2.01258 -2.1345,-3.01561 -3.2298,-3.01561c-0.9045,0 -1.6469,0.81454 -2.2326,2.4428c-0.3016,0.82703 -0.5369,1.81703 -0.7109,2.97569c-0.1715,1.15948 -0.2571,2.31895 -0.2571,3.47082c0,2.37056 0.3382,4.31822 1.012,5.84273c0.5734,1.29501 1.2276,1.94631 1.9604,1.94631c0.5638,0 1.2059,-0.38432 1.9264,-1.14644c0.7203,-0.7613 1.3575,-1.74451 1.9114,-2.93631l-0.7818,4.48064c-0.191,0.02635 -0.6247,0.12331 -1.2988,0.28654c-0.794,0.18849 -1.654,0.28627 -2.5781,0.28627c-0.919,0 -1.6296,-0.24091 -2.1319,-0.72274c-0.728,-0.71676 -1.2402,-2.02562 -1.5367,-3.93363c-0.1763,-1.15948 -0.2648,-2.4227 -0.2648,-3.79702c0,-2.38984 0.2427,-4.48689 0.7254,-6.29767c0.6225,-2.29831 1.4533,-3.58082 2.49,-3.84808c0.3209,-0.07849 0.7449,-0.11788 1.2719,-0.11788c0.4535,0 1.7668,0.12412 3.9407,0.36422l0.4535,0.05323l0,0.00003zm3.2596,-8.64215c-0.0295,0.48182 -0.0513,0.80069 -0.066,0.95686c-0.0613,0.95088 -0.1007,1.69372 -0.1154,2.22036c-0.0122,0.52745 -0.017,1.56362 -0.0122,3.10035c0.007,0.30664 0,1.75239 -0.0221,4.33072c0.3968,-0.65728 0.7965,-1.20402 1.1982,-1.64048c0.3776,-0.39111 0.6789,-0.65837 0.9045,-0.78846c0.2257,-0.13716 0.6886,-0.31262 1.3921,-0.52745c0.0587,-0.02607 0.2818,-0.10457 0.669,-0.2477c0.4116,-0.14938 0.7302,-0.22733 0.9607,-0.22733c0.4067,0 0.7622,0.14341 1.0635,0.43592c0.4632,0.4495 0.8382,1.25725 1.12,2.4227c0.3212,1.3151 0.4805,2.7671 0.4805,4.3701c0,2.66932 -0.3972,5.07274 -1.1912,7.19613c-0.4779,1.26975 -1.2792,2.46154 -2.3969,3.56235c0.875,-0.27405 1.5981,-0.50817 2.1668,-0.68444c0.7129,-0.21484 1.2741,-0.43565 1.6809,-0.67059l-0.6398,2.57915l-6.5188,0l0,-0.51496c0.5783,-0.07768 1.0466,-0.24716 1.4043,-0.50736c0.3554,-0.2602 0.7257,-0.69693 1.1078,-1.30261c0.8847,-1.41288 1.5511,-3.19759 1.995,-5.34706c0.2866,-1.38056 0.4311,-2.66389 0.4311,-3.82961c0,-1.46503 -0.1814,-2.80621 -0.5465,-4.02408c-0.4337,-1.49137 -0.9533,-2.23367 -1.5562,-2.23367c-0.517,0 -1.0882,0.62523 -1.7155,1.86863c-0.7376,1.46503 -1.2989,3.3084 -1.6886,5.52957c-0.1664,0.9699 -0.2892,1.94767 -0.3674,2.9431c-0.0808,0.99027 -0.142,2.38359 -0.1913,4.17536c-0.0343,1.25644 -0.0513,2.33742 -0.0564,3.24267l-1.9041,0c0.1959,-2.21411 0.3382,-4.7479 0.4215,-7.59349c0.0834,-2.85238 0.125,-6.525 0.125,-11.02574c0,-1.89552 -0.0292,-3.29509 -0.0907,-4.20062c-0.0589,-0.90525 -0.1913,-1.96695 -0.3971,-3.18428c0.1667,-0.02607 0.4657,-0.06546 0.8972,-0.11706c0.4067,-0.03993 0.892,-0.12385 1.4581,-0.26699l0,0.00001zm18.3263,7.3648c-0.2475,4.04499 -0.3728,8.31025 -0.3728,12.8042c0,2.35046 0.0958,4.40215 0.2869,6.1415l-1.8598,0.42261c-0.0567,-0.65131 -0.1131,-1.75157 -0.1644,-3.30134c-0.5879,1.12036 -1.1543,1.86863 -1.6935,2.25268c-0.2452,0.16242 -0.4288,0.26726 -0.5487,0.31262c-0.1228,0.04617 -0.4658,0.12412 -1.0319,0.24091c-0.0711,0.01385 -0.3359,0.0918 -0.7891,0.24797c-0.326,0.11081 -0.6324,0.16948 -0.919,0.16948c-0.919,0 -1.6569,-0.77543 -2.2108,-2.3252c-0.4923,-1.361 -0.7401,-3.26902 -0.7401,-5.72404c0,-2.53297 0.2869,-4.80032 0.8629,-6.7928c0.8552,-2.9765 1.9579,-4.46788 3.3083,-4.46788c0.2256,0 0.4779,0.03314 0.7622,0.09859c0.434,0.11 0.9094,0.18795 1.4213,0.22706c0.2282,0.01304 0.4266,0.05921 0.5905,0.14314c0.1669,0.07877 0.5394,0.31968 1.1251,0.71079c0.0907,0.06383 0.2035,0.09696 0.3359,0.09696c0.3503,0 0.8968,-0.41664 1.637,-1.25725zm-2.0098,6.12928c-0.2449,-1.4137 -0.5244,-2.46236 -0.8405,-3.15196c-0.4875,-1.0818 -1.0613,-1.62229 -1.7229,-1.62229c-0.6738,0 -1.3527,0.68987 -2.0316,2.07722c-1.0904,2.21411 -1.637,4.83264 -1.637,7.84825c0,1.93409 0.2597,3.52243 0.7816,4.76718c0.5516,1.29501 1.1077,1.94631 1.6667,1.94631c0.6639,0 1.3748,-0.95686 2.1249,-2.86542c0.6565,-1.67389 1.137,-3.69245 1.4434,-6.04291c0.0904,-0.71676 0.1542,-1.43298 0.1862,-2.15653c0.0292,-0.50057 0.0391,-0.76755 0.0292,-0.79987l0,0.00002zm8.7885,-10.09496c-0.7132,1.66765 -1.2327,3.11964 -1.5587,4.35054c0.1346,-0.01304 0.5712,-0.01928 1.3135,-0.01928c0.4975,-0.01385 1.1889,-0.07849 2.0759,-0.18931l-0.576,2.07722c-0.9803,0.07225 -2.1002,0.11081 -3.3599,0.11081c-0.6274,3.19134 -0.9411,6.05078 -0.9411,8.57045c0,2.54004 0.1984,4.28536 0.5955,5.22321c0.4068,0.9832 0.8969,1.47209 1.4655,1.47209c0.5122,0 1.0318,-0.52148 1.5588,-1.56308c0.01,-0.01385 0.3234,-0.71051 0.9408,-2.07804l-0.6026,4.68951c-0.3748,0.1502 -0.8847,0.22788 -1.529,0.22788l-0.5466,-0.01928c-0.1349,0 -0.2846,0.01249 -0.4538,0.03857c-0.6639,0.11706 -1.0341,0.17573 -1.1052,0.17573c-0.6789,0 -1.1809,-0.71622 -1.5069,-2.15517c-0.2917,-1.27029 -0.4388,-2.95722 -0.4388,-5.06052c0,-1.58888 0.0711,-3.20438 0.2157,-4.85192c0.1446,-1.64755 0.3481,-3.18428 0.6103,-4.61074l-2.4335,0l0.6616,-2.03811l2.1809,0c0.26,-1.29636 0.6373,-2.59843 1.1347,-3.91408l2.2989,-0.43647l0,-0.00001zm12.229,3.96568c-0.2475,4.04499 -0.3725,8.31025 -0.3725,12.8042c0,2.35046 0.0955,4.40215 0.2866,6.1415l-1.8598,0.42261c-0.0567,-0.65131 -0.1131,-1.75157 -0.1644,-3.30134c-0.5879,1.12036 -1.1543,1.86863 -1.6934,2.25268c-0.245,0.16242 -0.4289,0.26726 -0.5488,0.31262c-0.1228,0.04617 -0.4658,0.12412 -1.0318,0.24091c-0.0712,0.01385 -0.3359,0.0918 -0.7892,0.24797c-0.326,0.11081 -0.6324,0.16948 -0.919,0.16948c-0.919,0 -1.6568,-0.77543 -2.2105,-2.3252c-0.4926,-1.361 -0.7404,-3.26902 -0.7404,-5.72404c0,-2.53297 0.2869,-4.80032 0.8629,-6.7928c0.8552,-2.9765 1.9579,-4.46788 3.3083,-4.46788c0.2257,0 0.4779,0.03314 0.7623,0.09859c0.4339,0.11 0.9093,0.18795 1.4212,0.22706c0.2282,0.01304 0.4267,0.05921 0.5908,0.14314c0.1667,0.07877 0.5391,0.31968 1.1248,0.71079c0.0907,0.06383 0.2035,0.09696 0.3359,0.09696c0.3503,0 0.8969,-0.41664 1.637,-1.25725zm-2.0095,6.12928c-0.2452,-1.4137 -0.5247,-2.46236 -0.8407,-3.15196c-0.4876,-1.0818 -1.0611,-1.62229 -1.7229,-1.62229c-0.6738,0 -1.3527,0.68987 -2.0316,2.07722c-1.0905,2.21411 -1.637,4.83264 -1.637,7.84825c0,1.93409 0.2596,3.52243 0.7818,4.76718c0.5513,1.29501 1.1074,1.94631 1.6664,1.94631c0.6639,0 1.3748,-0.95686 2.1249,-2.86542c0.6565,-1.67389 1.137,-3.69245 1.4434,-6.04291c0.0904,-0.71676 0.1542,-1.43298 0.1862,-2.15653c0.0295,-0.50057 0.0391,-0.76755 0.0295,-0.79987l0,0.00002z" fill-rule="evenodd" fill="#1b1918" stroke="null"/>
 </g>
</svg>